<svg xmlns="http://www.w3.org/2000/svg" width="85" height="84.848" viewBox="0 0 85 84.848">
  <g id="share" transform="translate(0 -0.457)">
    <g id="Group_1546" data-name="Group 1546" transform="translate(53.45 16.32)">
      <g id="Group_1545" data-name="Group 1545">
        <path id="Path_1677" data-name="Path 1677" d="M324.794,96.495a1.661,1.661,0,1,0,.486,1.175A1.671,1.671,0,0,0,324.794,96.495Z" transform="translate(-321.96 -96.01)" fill="#1379ff"/>
      </g>
    </g>
    <g id="Group_1548" data-name="Group 1548" transform="translate(28.133 41.83)">
      <g id="Group_1547" data-name="Group 1547">
        <path id="Path_1678" data-name="Path 1678" d="M172.294,250.156a1.659,1.659,0,1,0,.486,1.174A1.673,1.673,0,0,0,172.294,250.156Z" transform="translate(-169.46 -249.67)" fill="#1379ff"/>
      </g>
    </g>
    <g id="Group_1550" data-name="Group 1550" transform="translate(60.43 0.457)">
      <g id="Group_1549" data-name="Group 1549">
        <path id="Path_1679" data-name="Path 1679" d="M376.285.457A12.285,12.285,0,1,0,388.57,12.742,12.3,12.3,0,0,0,376.285.457Zm5.906,19.021a8.939,8.939,0,0,1-11.813,0V19.47a1.644,1.644,0,0,1,1.343-1.616l1.125-.21a5.247,5.247,0,0,0,6.879,0l1.125.21a1.644,1.644,0,0,1,1.343,1.616Zm-7.85-5.813V12.538a1.943,1.943,0,1,1,3.886,0v1.127a1.943,1.943,0,1,1-3.886,0Zm10.118,2.751a4.956,4.956,0,0,0-2.995-1.825,5.275,5.275,0,0,0,.083-.926V12.537a5.263,5.263,0,1,0-10.527,0v1.127a5.262,5.262,0,0,0,.083.926,4.956,4.956,0,0,0-2.994,1.824,8.965,8.965,0,1,1,16.349,0Z" transform="translate(-364 -0.457)" fill="#1379ff"/>
      </g>
    </g>
    <g id="Group_1552" data-name="Group 1552" transform="translate(32.214 45.883)">
      <g id="Group_1551" data-name="Group 1551">
        <path id="Path_1680" data-name="Path 1680" d="M217.914,282.293a15.53,15.53,0,0,0-9.781,3.455l-11.261-11.184a1.66,1.66,0,0,0-2.34,2.356l11.251,11.174a15.6,15.6,0,1,0,12.131-5.8Zm8.271,24.681a12.262,12.262,0,0,1-16.542,0v-.245a2.677,2.677,0,0,1,2.186-2.631l1.727-.322a6.373,6.373,0,0,0,8.717,0L224,304.1a2.678,2.678,0,0,1,2.186,2.631v.246Zm-11.34-7.865v-1.48a3.069,3.069,0,1,1,6.138,0v1.48a3.069,3.069,0,1,1-6.138,0Zm13.868,4.642a6,6,0,0,0-4.106-2.918l-.515-.1a6.375,6.375,0,0,0,.211-1.628v-1.48a6.389,6.389,0,1,0-12.779,0v1.48a6.374,6.374,0,0,0,.211,1.628l-.516.1a6,6,0,0,0-4.105,2.917,12.285,12.285,0,1,1,21.6,0Z" transform="translate(-194.041 -274.081)" fill="#1379ff"/>
      </g>
    </g>
    <g id="Group_1554" data-name="Group 1554" transform="translate(0 13.322)">
      <g id="Group_1553" data-name="Group 1553">
        <path id="Path_1681" data-name="Path 1681" d="M50.7,83.831a1.66,1.66,0,0,0-2.043-1.156L30.116,87.812a15.593,15.593,0,1,0,.887,3.2l18.538-5.137A1.66,1.66,0,0,0,50.7,83.831Zm-26.821,18.8a12.262,12.262,0,0,1-16.542,0v-.245A2.677,2.677,0,0,1,9.52,99.754l1.727-.322a6.373,6.373,0,0,0,8.717,0l1.727.322a2.677,2.677,0,0,1,2.186,2.631Zm-11.34-7.865v-1.48a3.069,3.069,0,1,1,6.138,0v1.48a3.069,3.069,0,0,1-6.138,0ZM26.4,99.408A5.994,5.994,0,0,0,22.3,96.49l-.515-.1a6.374,6.374,0,0,0,.211-1.628v-1.48a6.389,6.389,0,0,0-12.779,0v1.48a6.374,6.374,0,0,0,.211,1.628l-.516.1a5.994,5.994,0,0,0-4.105,2.917,12.285,12.285,0,1,1,21.6,0Z" transform="translate(0 -77.95)" fill="#1379ff"/>
      </g>
    </g>
  </g>
</svg>
