<svg id="Group_1566" data-name="Group 1566" xmlns="http://www.w3.org/2000/svg" width="80" height="80.863" viewBox="0 0 80 80.863">
  <g id="Group_1565" data-name="Group 1565" transform="translate(0)">
    <path id="Path_1699" data-name="Path 1699" d="M159.781,218.936H144.916a2.252,2.252,0,0,0-2.252,2.252v29.167a2.252,2.252,0,0,0,2.252,2.252h14.865a2.252,2.252,0,0,0,2.252-2.252V221.188A2.252,2.252,0,0,0,159.781,218.936ZM157.529,248.1h-10.36V223.441h10.36Z" transform="translate(-112.344 -171.744)" fill="#1379ff"/>
    <path id="Path_1700" data-name="Path 1700" d="M296.253,136.911H281.275a2.252,2.252,0,0,0-2.252,2.252v46.847a2.252,2.252,0,0,0,2.252,2.252h14.978a2.252,2.252,0,0,0,2.252-2.252V139.163A2.252,2.252,0,0,0,296.253,136.911ZM294,183.758H283.528V141.416H294Z" transform="translate(-219.311 -107.4)" fill="#1379ff"/>
    <path id="Path_1701" data-name="Path 1701" d="M23.012,269.613H8.034a2.252,2.252,0,0,0-2.252,2.252v18.243a2.252,2.252,0,0,0,2.252,2.252H23.012a2.252,2.252,0,0,0,2.252-2.252V271.865A2.252,2.252,0,0,0,23.012,269.613ZM20.76,287.857H10.287V274.118H20.76v13.739Z" transform="translate(-4.967 -211.498)" fill="#1379ff"/>
    <path id="Path_1702" data-name="Path 1702" d="M81.422,2.259a1.914,1.914,0,0,0-1.464-.788L59.462.007a2.259,2.259,0,0,0-.338,4.5L73.63,5.5,46.962,26.358,26.579,10.367a2.252,2.252,0,0,0-2.928.113L2.7,30.525a2.252,2.252,0,0,0-.113,3.153,2.027,2.027,0,0,0,1.689.788,2.252,2.252,0,0,0,1.577-.676L25.34,15.1,45.5,30.975a2.252,2.252,0,0,0,2.815,0L77.143,8.541,76.017,22.529a2.365,2.365,0,0,0,2.14,2.365h.113a2.252,2.252,0,0,0,2.252-2.027L81.985,3.835A1.8,1.8,0,0,0,81.422,2.259Z" transform="translate(-2.003 0)" fill="#1379ff"/>
  </g>
</svg>
