<svg xmlns="http://www.w3.org/2000/svg" xmlns:xlink="http://www.w3.org/1999/xlink" width="763" height="482.82" viewBox="0 0 763 482.82">
  <defs>
    <linearGradient id="linear-gradient" x1="0.501" y1="1" x2="0.501" gradientUnits="objectBoundingBox">
      <stop offset="0" stop-color="gray" stop-opacity="0.251"/>
      <stop offset="0.54" stop-color="gray" stop-opacity="0.122"/>
      <stop offset="1" stop-color="gray" stop-opacity="0.102"/>
    </linearGradient>
  </defs>
  <g id="illustration" transform="translate(0 -78.035)">
    <g id="Group_1542" data-name="Group 1542" transform="translate(287.891 78.035)" opacity="0.9">
      <rect id="Rectangle_106" data-name="Rectangle 106" width="6.165" height="50.813" rx="2.29" transform="translate(205.019 95.084)" fill="#3a3768"/>
      <rect id="Rectangle_107" data-name="Rectangle 107" width="3.459" height="16.729" rx="1.729" transform="translate(0.125 55.28)" fill="#3a3768"/>
      <rect id="Rectangle_108" data-name="Rectangle 108" width="3.897" height="29.115" rx="1.948" transform="translate(0 85.906)" fill="#3a3768"/>
      <rect id="Rectangle_109" data-name="Rectangle 109" width="3.709" height="29.366" rx="1.855" transform="translate(0.063 125.209)" fill="#3a3768"/>
      <rect id="Rectangle_110" data-name="Rectangle 110" width="206.258" height="419.189" rx="38.99" transform="translate(2.088)" fill="#3a3768"/>
      <rect id="Rectangle_111" data-name="Rectangle 111" width="28.802" height="5.845" rx="2.923" transform="translate(85.314 12.512)" fill="#e6e8ec"/>
      <circle id="Ellipse_96" data-name="Ellipse 96" cx="3.319" cy="3.319" r="3.319" transform="translate(118.473 12.122)" fill="#e6e8ec"/>
    </g>
    <ellipse id="Ellipse_97" data-name="Ellipse 97" cx="139.154" cy="14.182" rx="139.154" ry="14.182" transform="translate(26.492 492.686)" fill="#1379ff" opacity="0.1"/>
    <ellipse id="Ellipse_98" data-name="Ellipse 98" cx="65.19" cy="6.646" rx="65.19" ry="6.646" transform="translate(409.871 547.563)" fill="#6c63ff" opacity="0.1"/>
    <ellipse id="Ellipse_99" data-name="Ellipse 99" cx="65.19" cy="6.646" rx="65.19" ry="6.646" transform="translate(632.621 514.078)" fill="#6c63ff" opacity="0.1"/>
    <path id="Path_1538" data-name="Path 1538" d="M651.163,176.84h-23.59v2.846a13.486,13.486,0,0,1-13.486,13.486h-75.28a13.486,13.486,0,0,1-13.486-13.486V176.84H503.164a16.374,16.374,0,0,0-16.374,16.381v364.59a16.374,16.374,0,0,0,16.374,16.381h148a16.381,16.381,0,0,0,16.381-16.381V193.221A16.381,16.381,0,0,0,651.163,176.84Z" transform="translate(-184.07 -87.894)" fill="#1379ff"/>
    <ellipse id="Ellipse_100" data-name="Ellipse 100" cx="27.981" cy="4.732" rx="27.981" ry="4.732" transform="translate(0 467.468)" fill="#1379ff"/>
    <path id="Path_1541" data-name="Path 1541" d="M97.282,710.825a8.093,8.093,0,0,0,2.672-4.022,3.606,3.606,0,0,0-1.865-4.1c-1.712-.661-3.542.529-4.927,1.726s-2.978,2.568-4.795,2.31a7.286,7.286,0,0,0,2.234-6.826,2.783,2.783,0,0,0-.626-1.392c-.946-1.016-2.672-.578-3.813.223-3.619,2.547-4.628,7.46-4.641,11.886a21.926,21.926,0,0,1-.07-4.871c-.007-1.607-.459-3.479-1.837-4.328a5.566,5.566,0,0,0-2.784-.661c-1.628-.056-3.438.1-4.551,1.294-1.392,1.475-1.023,3.96.181,5.567a18.194,18.194,0,0,0,4.7,3.772,10.382,10.382,0,0,1,3.368,3.208,3.07,3.07,0,0,1,.251.571H90.978a28.371,28.371,0,0,0,6.3-4.356Z" transform="translate(-57.736 -246.37)" fill="#1379ff"/>
    <path id="Path_1542" data-name="Path 1542" d="M875.1,632.54s6.019,7.877-2.784,19.763-16.054,21.92-13.117,29.331c0,0,13.277-22.073,24.084-22.386S886.986,645.817,875.1,632.54Z" transform="translate(-297.127 -226.483)" fill="#1379ff"/>
    <path id="Path_1543" data-name="Path 1543" d="M875.251,632.54a9.916,9.916,0,0,1,1.232,2.47c10.542,12.387,16.158,23.952,6.019,24.237-9.436.271-20.765,17.153-23.472,21.412a7.961,7.961,0,0,0,.32.974s13.277-22.073,24.084-22.386S887.136,645.817,875.251,632.54Z" transform="translate(-297.277 -226.483)" opacity="0.1"/>
    <path id="Path_1544" data-name="Path 1544" d="M897.812,646.224c0,2.784-.313,5.017-.7,5.017s-.7-2.248-.7-5.017.39-1.461.772-1.461S897.812,643.441,897.812,646.224Z" transform="translate(-308.648 -230.105)" fill="#ffd037"/>
    <path id="Path_1545" data-name="Path 1545" d="M901.863,650.888c-2.436,1.322-4.551,2.129-4.739,1.788s1.642-1.684,4.078-3.013,1.468-.355,1.656,0S904.3,649.559,901.863,650.888Z" transform="translate(-308.859 -231.485)" fill="#ffd037"/>
    <path id="Path_1546" data-name="Path 1546" d="M830.737,632.54s-6.019,7.877,2.784,19.763,16.054,21.92,13.124,29.331c0,0-13.277-22.073-24.084-22.386S818.851,645.817,830.737,632.54Z" transform="translate(-284.565 -226.483)" fill="#1379ff"/>
    <path id="Path_1547" data-name="Path 1547" d="M830.735,632.54a9.632,9.632,0,0,0-1.232,2.47c-10.542,12.387-16.158,23.952-6.026,24.237,9.443.271,20.765,17.153,23.479,21.412a9.393,9.393,0,0,1-.32.974s-13.277-22.073-24.084-22.386S818.849,645.817,830.735,632.54Z" transform="translate(-284.563 -226.483)" opacity="0.1"/>
    <path id="Path_1548" data-name="Path 1548" d="M820.55,646.224c0,2.784.313,5.017.7,5.017s.7-2.248.7-5.017-.39-1.461-.772-1.461S820.55,643.441,820.55,646.224Z" transform="translate(-285.575 -230.105)" fill="#ffd037"/>
    <path id="Path_1549" data-name="Path 1549" d="M814.357,650.888c2.429,1.322,4.551,2.129,4.732,1.788s-1.635-1.684-4.071-3.013-1.475-.355-1.656,0S811.95,649.559,814.357,650.888Z" transform="translate(-283.244 -231.485)" fill="#ffd037"/>
    <path id="Path_1550" data-name="Path 1550" d="M823.31,697.634s16.833-.522,21.906-4.133,25.894-7.926,27.139-2.129,25.3,28.816,6.263,28.969-44.16-2.964-49.219-6.047S823.31,697.634,823.31,697.634Z" transform="translate(-286.414 -243.513)" fill="#a8a8a8"/>
    <path id="Path_1551" data-name="Path 1551" d="M879,722.289c-19,.153-44.16-2.964-49.219-6.047-3.862-2.345-5.393-10.772-5.908-14.662h-.564s1.065,13.577,6.131,16.659,30.215,6.2,49.219,6.047c5.484-.049,7.383-2,7.279-4.871C885.173,721.162,883.086,722.254,879,722.289Z" transform="translate(-286.414 -247.48)" opacity="0.2"/>
    <rect id="Rectangle_112" data-name="Rectangle 112" width="54.299" height="54.299" transform="translate(406.76 339.496)" fill="#3a3768" opacity="0.3"/>
    <rect id="Rectangle_113" data-name="Rectangle 113" width="54.299" height="54.299" transform="translate(326.735 267.821)" fill="#3a3768" opacity="0.3"/>
    <rect id="Rectangle_114" data-name="Rectangle 114" width="54.299" height="54.299" transform="translate(331.954 409.947)" fill="#3a3768" opacity="0.3"/>
    <rect id="Rectangle_115" data-name="Rectangle 115" width="54.299" height="54.299" transform="translate(319.838 134.498)" fill="#fff"/>
    <rect id="Rectangle_116" data-name="Rectangle 116" width="54.299" height="54.299" transform="matrix(0.742, -0.671, 0.671, 0.742, 409.907, 356.356)" fill="#fff"/>
    <rect id="Rectangle_117" data-name="Rectangle 117" width="54.299" height="54.299" transform="translate(405.863 199.931)" fill="#fff"/>
    <rect id="Rectangle_118" data-name="Rectangle 118" width="54.299" height="54.299" transform="translate(337.221 260.473)" fill="#fff"/>
    <path id="Path_1552" data-name="Path 1552" d="M1023,778.356c3.159.411,6.437.7,9.464-.32.466-.146,1-.466.939-.946a1.113,1.113,0,0,0-.216-.459,29.52,29.52,0,0,1-2.874-5.449.446.446,0,0,0-.174-.244.424.424,0,0,0-.306,0c-1.392.362-2.6,1.267-3.994,1.649a5.706,5.706,0,0,1-2.171.167c-.626-.07-1.489-.591-2.053-.529C1021.968,774.292,1022.761,776.247,1023,778.356Z" transform="translate(-346.725 -268.565)" fill="#6c63ff"/>
    <path id="Path_1553" data-name="Path 1553" d="M1108.026,769.274c2.088-1.392,4.245-2.937,5.476-5.143a.843.843,0,0,0,.146-.438.9.9,0,0,0-.174-.431,17.829,17.829,0,0,0-4.447-4.8,13.146,13.146,0,0,0-2.484,2.289c-.522.55-1.969,1.454-1.983,2.276,0,.494.55,1.03.807,1.392.348.515.7,1.044,1,1.573A26.1,26.1,0,0,1,1108.026,769.274Z" transform="translate(-371.949 -264.779)" fill="#6c63ff"/>
    <path id="Path_1554" data-name="Path 1554" d="M1027.312,786.205a2.087,2.087,0,0,1-.376,1.392,1.858,1.858,0,0,1-.8.466c-4.426,1.58-9.52-.4-13.918,1.169-.912.32-1.767.779-2.679,1.086a14.509,14.509,0,0,1-3.319.591c-1.566.153-3.131.244-4.7.285a11.361,11.361,0,0,1-3.535-.306,4.28,4.28,0,0,1-2.714-2.15,2.087,2.087,0,0,1-.132-1.531,1.732,1.732,0,0,1,.285-.494,4.237,4.237,0,0,1,1.044-.842l1.628-1.051a10.878,10.878,0,0,1,2.463-1.308c.64-.209,1.329-.3,1.976-.487,2.289-.7,4.029-2.484,5.651-4.224l2.213-2.359a2.165,2.165,0,0,1,.765-.612,2.087,2.087,0,0,1,.946-.1,12.783,12.783,0,0,1,6.033,2.032,8.7,8.7,0,0,0,1.489.877,5.316,5.316,0,0,0,4.175-.522c.571-.3.445-.487.7-1.023s.821-.884,1.322-.39a1.453,1.453,0,0,1,.313.6,16.605,16.605,0,0,1,.3,4.92,2.182,2.182,0,0,0,.1.765,4.644,4.644,0,0,0,.431.7,1.1,1.1,0,0,1,.09.181A4.828,4.828,0,0,1,1027.312,786.205Z" transform="translate(-338.645 -270.026)" fill="#514e7f"/>
    <path id="Path_1555" data-name="Path 1555" d="M1027.312,789.771a2.087,2.087,0,0,1-.376,1.392,1.858,1.858,0,0,1-.8.466c-4.426,1.58-9.52-.4-13.918,1.169-.912.32-1.767.779-2.679,1.086a14.509,14.509,0,0,1-3.319.591c-1.566.153-3.131.244-4.7.285a11.361,11.361,0,0,1-3.535-.306,4.28,4.28,0,0,1-2.714-2.15,2.087,2.087,0,0,1-.132-1.531,1.732,1.732,0,0,1,.285-.494c.264.543.452,1.253.612,1.51a3.09,3.09,0,0,0,2.088,1.5,5.3,5.3,0,0,0,1.886-.244c4.008-1,8.267-1.009,12.108-2.512a28.929,28.929,0,0,1,3.966-1.524,31.511,31.511,0,0,1,4.287-.348c2.262-.181,4.447-.863,6.68-1.218a4.829,4.829,0,0,1,.257,2.331Z" transform="translate(-338.645 -273.592)" fill="#464353"/>
    <path id="Path_1556" data-name="Path 1556" d="M1113.13,770.247a8.032,8.032,0,0,1-2.443,4.349,27.882,27.882,0,0,0-3.41,3.737c-1.155,1.754-1.663,3.918-3.152,5.4a8.541,8.541,0,0,1-1.893,1.392,13.086,13.086,0,0,1-2.457,1.127,18.805,18.805,0,0,1-6.959.383,6.187,6.187,0,0,1-2.2-.431,6.387,6.387,0,0,1-.932-.564,4.426,4.426,0,0,1-1.392-1.441,1.447,1.447,0,0,1-.132-1.037,2.366,2.366,0,0,1,.7-1.016,15.734,15.734,0,0,1,1.677-1.51,9.955,9.955,0,0,0,2.185-1.921,6.264,6.264,0,0,0,.842-1.921,17.2,17.2,0,0,0,.612-3.653,11.5,11.5,0,0,1,.258-2.443c.355-1.253,1.287-2.387,1.176-3.688a.946.946,0,0,1,.049-.557.87.87,0,0,1,.438-.271,7.932,7.932,0,0,1,2.282-.522,2.631,2.631,0,0,1,2.088.828c.327.39.536.932,1.016,1.106a1.683,1.683,0,0,0,.7,0,5.92,5.92,0,0,0,3.313-1.023,4.175,4.175,0,0,0,1.392-3.041c0-.431-.195-.884.466-.974.508-.07.9.459,1.162.807a11.356,11.356,0,0,1,2.234,4.071,1.127,1.127,0,0,1,.424-.083,1.816,1.816,0,0,1,1.517.779,3.006,3.006,0,0,1,.446,2.115Z" transform="translate(-366.949 -266.023)" fill="#514e7f"/>
    <path id="Path_1557" data-name="Path 1557" d="M1113.206,772.363a8.03,8.03,0,0,1-2.443,4.349,27.89,27.89,0,0,0-3.41,3.737c-1.155,1.754-1.663,3.918-3.152,5.4a8.539,8.539,0,0,1-1.893,1.392,13.086,13.086,0,0,1-2.457,1.127,18.8,18.8,0,0,1-6.959.383,6.188,6.188,0,0,1-2.2-.431,6.394,6.394,0,0,1-.932-.564,4.425,4.425,0,0,1-1.392-1.441,3.39,3.39,0,0,1,1.434-.341c1.037.056,1.788,1.03,2.783,1.329,1.392.424,2.784-.571,4.238-.912.932-.216,1.921-.153,2.832-.452a6.993,6.993,0,0,0,2.088-1.266,10.6,10.6,0,0,0,2.234-2.157,13.752,13.752,0,0,0,1.315-2.617,37.38,37.38,0,0,1,2.651-5.073,3.363,3.363,0,0,1,.543-.7c.216-.2.487-.348.7-.529a5.535,5.535,0,0,0,1.684-3.069,5.138,5.138,0,0,1,.376-1.023,1.817,1.817,0,0,1,1.517.779A3.006,3.006,0,0,1,1113.206,772.363Z" transform="translate(-367.025 -268.139)" fill="#464353"/>
    <path id="Path_1558" data-name="Path 1558" d="M979.584,554.836a10.1,10.1,0,0,1,2.839,3.319c.7,1.308,4.516,11.468,4.294,12.922,1.253-1.267,6.221-1.475,7.467-2.735.529-.529,3.389-3.173,3.813-3.786s3.612-1.928,3.96-2.554c1.3-2.331-9.227-11.134-7.884-13.472a.571.571,0,0,0,.111-.362.557.557,0,0,0-.174-.278,16.756,16.756,0,0,0-3.048-2.088,4.871,4.871,0,0,1-2.324-2.783,10,10,0,0,0-2.693,1.823q-2.888,2.47-5.692,5.066c-.738.7-2.143,1.58-2.484,2.547S978.881,554.265,979.584,554.836Z" transform="translate(-333.373 -199.258)" fill="#a1616a"/>
    <path id="Path_1559" data-name="Path 1559" d="M999.087,554.61a30.494,30.494,0,0,0-4.509,3.688,9.023,9.023,0,0,0-2.874,4.6c-.132.7-.111,1.433-.223,2.15-.466,3.118-3.173,5.407-4.363,8.351a14.293,14.293,0,0,0-.765,2.784,32.8,32.8,0,0,0-.543,5.47c0,1.781,1.712,3.006,2.352,4.669a28.313,28.313,0,0,1,1.134,5.059,61.635,61.635,0,0,0,2.846,9.394c2.352,6.493,9.972,24.446,12.324,30.946,7.2-1.809,26.381-5.964,32.755-9.742,2.129-1.267-14.753-15.574-12.477-16.562a1.148,1.148,0,0,0,.633-.48,1.1,1.1,0,0,0,0-.7c-2.269-9.944-9.387-18.093-12.609-27.835-1.12-3.361-3.131-6.228-4.662-9.429-1.392-2.895-2.122-6.089-3.772-8.838a5.91,5.91,0,0,0-1.2-1.51,7.381,7.381,0,0,0-1.336-.8C1000.883,555.341,1000.006,555.069,999.087,554.61Z" transform="translate(-335.834 -202.783)" fill="#514e7f"/>
    <circle id="Ellipse_101" data-name="Ellipse 101" cx="11.273" cy="11.273" r="11.273" transform="translate(635.321 331.897)" fill="#a1616a"/>
    <path id="Path_1560" data-name="Path 1560" d="M997.43,549.344a3.779,3.779,0,0,1,4.238-.605,2.088,2.088,0,0,1,1.26,2.032l5.567.084a11.647,11.647,0,0,1,2.651.244,3.855,3.855,0,0,1,2.213,1.392c.07.09.146.195.258.216a.445.445,0,0,0,.257-.09,4.907,4.907,0,0,1,2.784-.5,15.046,15.046,0,0,1,8.184,3.6,2.651,2.651,0,0,1,.974,1.19c.195.633,0,1.447.459,1.879,0,5.254,1.8,10.146,3.006,15.261a6.763,6.763,0,0,0,1.691,2.429,9.738,9.738,0,0,1,1.809,2.7c1.016,2.651-.39,5.762.605,8.427a13.57,13.57,0,0,0,1.921,3.027,7.8,7.8,0,0,1,1.635,3.911c.042.64-.042,1.28,0,1.928a11.749,11.749,0,0,0,.459,2.533c.4,1.538.835,3.076,1.28,4.607.7,2.477,1.67,5.156,3.89,6.479-5.365.912-11.016,1.8-16.13-.063a8.352,8.352,0,0,1-2.011-1.009c-1.844-1.315-2.735-3.57-3.528-5.692a26.752,26.752,0,0,1-1.976-7.348,8.41,8.41,0,0,0-.334-2.4c-.522-1.392-1.9-2.22-3.166-2.985a15.236,15.236,0,0,1-3.806-2.964,5.915,5.915,0,0,1-1.545-4.454c.1-.786.4-1.545.438-2.338a1.872,1.872,0,0,0-1.086-1.928c-3.9-1.183-5.769-5.8-6.639-9.791a31.246,31.246,0,0,1-.5-6.263l-.049-4.029a5.344,5.344,0,0,1-1.754-3.855,4.327,4.327,0,0,0,0-1.273,3.569,3.569,0,0,0-.891-1.392,11.757,11.757,0,0,1-2.164-2.95Z" transform="translate(-339.368 -200.878)" fill="#464353"/>
    <path id="Path_1561" data-name="Path 1561" d="M979.827,566.834a29.8,29.8,0,0,1-.125,3.786c-.111.473-.3.926-.438,1.392a8.213,8.213,0,0,0,.522,5.3,29.471,29.471,0,0,0,2.707,4.7,7.158,7.158,0,0,1,.87,1.621,8.4,8.4,0,0,1,.334,1.858,56.58,56.58,0,0,0,1.329,7.474,14.684,14.684,0,0,0,2.63,6.005,1.823,1.823,0,0,0,1.086.738,1.963,1.963,0,0,0,.925-.195l2.881-1.093a2.012,2.012,0,0,0,.7-.362,1.746,1.746,0,0,0,.4-1.127,16.567,16.567,0,0,0-1.266-6.827c-2.338-6.639-5.442-13.034-6.959-19.9-.424-1.921-.647-4.871-2.046-6.367-.578-.626-.383-.362-1.072,0a8.735,8.735,0,0,0-1.009.536A3.306,3.306,0,0,0,979.827,566.834Z" transform="translate(-333.776 -205.474)" fill="#464353"/>
    <path id="Path_1562" data-name="Path 1562" d="M1059.24,627.68" transform="translate(-358.166 -225.005)" fill="#464353"/>
    <path id="Path_1563" data-name="Path 1563" d="M992.346,577.873q1.148,6.075,2.345,12.157l11.19-2.937a7.838,7.838,0,0,0-.967-3.347c-1.023-2.561-1.044-5.407-1.872-8.037-.626-2-1.712-3.848-2.3-5.866-.341-1.169-.508-2.394-.842-3.57a27.279,27.279,0,0,0-1.315-3.4,21.686,21.686,0,0,0-2.443-4.53,7.136,7.136,0,0,0-3.772,2.443,5.191,5.191,0,0,0-.7,2.408c-.195,2.519.7,5.045.411,7.536A22.265,22.265,0,0,0,992.346,577.873Z" transform="translate(-337.61 -203.917)" fill="#94c2ff"/>
    <path id="Path_1564" data-name="Path 1564" d="M1009.652,653.462c.626,2.394-.285,4.871-1.023,7.251a56.305,56.305,0,0,0-2.282,10.918,9.043,9.043,0,0,1-.564,2.783,26.006,26.006,0,0,1-1.357,2.227c-1.127,1.99-1.1,4.426-.856,6.7.16,1.5.4,3,.7,4.481.369,1.8.821,3.7.292,5.456.884-.195,1.489.946,1.454,1.858s-.355,1.886.077,2.686c1.1.4,1.113,1.907,1.079,3.069a25.877,25.877,0,0,0,.759,6.012q2.491,11.962,5.289,23.862c4.029,1.253,8.733,2.554,12.574.821a2.471,2.471,0,0,0,1.594-1.6,2.882,2.882,0,0,0-.153-1.232l-1.823-6.625a12.2,12.2,0,0,1-.654-4.871c.181-1.232.7-2.554.111-3.633a10.473,10.473,0,0,0-.765-1.016c-.96-1.392-.459-3.264-.376-4.962a3.884,3.884,0,0,0-.083-1.134,5.957,5.957,0,0,0-.536-1.246,19.018,19.018,0,0,1-2.088-9.464,2.325,2.325,0,0,0-.167-1.239,2.83,2.83,0,0,1-.306-.5,1.344,1.344,0,0,1,.1-.912,7.923,7.923,0,0,1-1.468-1.392,2.088,2.088,0,0,0,.348-3.215,1.072,1.072,0,0,0,.515-1.844c-.237-.167-.543-.237-.7-.473-.258-.348-.049-.842.16-1.218l1.113-2.011c.828-1.489,1.016-3.333,1.907-4.788a35.931,35.931,0,0,0,2.937-6.7l3.173-8.838,2.157,1.872a6.756,6.756,0,0,1,1.775,2.025,8.54,8.54,0,0,1,.571,2.422c.793,4.8,3.82,8.963,4.941,13.7a9.235,9.235,0,0,0,1.016,3.062,6.625,6.625,0,0,1,.585.877,4.623,4.623,0,0,1,.244,1.454,6.778,6.778,0,0,0,2.86,4.871c1.058.7,2.4,1.232,2.958,2.387a4.711,4.711,0,0,0,.487,1.016c.515.619,1.628.7,1.851,1.468.118.438-.111.953.139,1.336a1.217,1.217,0,0,0,.522.39l3.11,1.559c3.479,1.733,5.233,5.706,7.8,8.622a17.9,17.9,0,0,1,2.331,3.09c1.106,1.976,1.621,4.461,3.479,5.734a5.405,5.405,0,0,1,1.35,1c.592.772.376,1.858.424,2.832s.8,2.129,1.726,1.837a6.714,6.714,0,0,0,0,3.6,18.135,18.135,0,0,0,10.995-4.454,4.338,4.338,0,0,0,1.788-3,1.162,1.162,0,0,0-.132-.6,1.627,1.627,0,0,0-.7-.529c-2.9-1.573-3.779-5.219-5.233-8.183a68.485,68.485,0,0,0-4.788-7.293c-3.479-5.219-5.8-11.531-11.03-14.982-1.148-.759-2.484-1.434-3.055-2.686a21.452,21.452,0,0,1-.612-2.227,1.872,1.872,0,0,0-1.635-1.392,9.93,9.93,0,0,0,.376-3.479,4.327,4.327,0,0,0-.174-1.5,7.069,7.069,0,0,0-.766-1.475,14.3,14.3,0,0,1-1.969-7.655,12.328,12.328,0,0,0-.132-4.113c-.209-.7-.571-1.273-.828-1.921a11.978,11.978,0,0,1-.6-3.584l-.285-4.586a21.956,21.956,0,0,0-.591-4.53c-.967-3.556-1.893-18.455-5.17-20.132s-8.872,9.784-12.526,10.014a16.7,16.7,0,0,0-4.788.919,23.2,23.2,0,0,0-6.492,4.307l-6.764,5.678A24.656,24.656,0,0,1,1009.652,653.462Z" transform="translate(-341.194 -225.513)" fill="#464353"/>
    <path id="Path_1565" data-name="Path 1565" d="M964.466,522.781a8.5,8.5,0,0,1,6.562-3.2,15.31,15.31,0,0,1,7.251,1.823,9.346,9.346,0,0,0,2.088.87c1.2.244,2.519-.083,3.6.487,1.434.759,1.7,2.693,1.58,4.307s-.424,3.382.431,4.767a13.234,13.234,0,0,1,.828,1.239,4.133,4.133,0,0,1-.077,2.651,21.318,21.318,0,0,1-1.392-1.747,1.619,1.619,0,0,0-1.969-.515c-.612.411-.612,1.169-.64,1.844s-.209,1.489-.849,1.712a1.391,1.391,0,0,1-1.392-.557c-1.093-1.336-.654-3.479-1.733-4.815-.619-.765-1.642-1.134-2.213-1.935-.445-.626-.557-1.44-.946-2.088s-1.3-1.176-1.914-.7a2.6,2.6,0,0,0-.508.7,2.929,2.929,0,0,1-3.479,1.044,6.1,6.1,0,0,0-1.51-.647,1.858,1.858,0,0,0-1.719.932,3.7,3.7,0,0,0-.452,1.99,4.628,4.628,0,0,1-.376,2.735,2.825,2.825,0,0,1-.807.7,2.389,2.389,0,0,1-2.644.271,1.99,1.99,0,0,1-.591-1.851,15.2,15.2,0,0,1,.564-1.955c.418-1.475-.125-3.138.334-4.53A14.255,14.255,0,0,1,964.466,522.781Z" transform="translate(-328.457 -192.129)" fill="#464353"/>
    <path id="Path_1566" data-name="Path 1566" d="M974.4,563.644a1.74,1.74,0,0,0,.1,1.037,1.684,1.684,0,0,0,.564.543,11.677,11.677,0,0,0,5.317,1.719,1.6,1.6,0,0,1,.7.188,1.315,1.315,0,0,1,.313,1.482,3.946,3.946,0,0,0-.334,1.573c.139,1,1.315,1.448,2.317,1.573a5.373,5.373,0,0,0,4.029-.779,6.216,6.216,0,0,0,1.663-2.5c2.735-6.263,3.7-13.222,6.465-19.484a3.962,3.962,0,0,0,.417-1.3,1.294,1.294,0,0,0-.515-1.2c-.515-.32-1.315-.139-1.663-.633-.174-.258-.153-.6-.306-.863-.32-.571-1.155-.5-1.733-.807-.445-.244-.759-.7-1.253-.828a1.6,1.6,0,0,0-1.308.564c-1.621,1.517-2.477,3.667-3.382,5.7a67.69,67.69,0,0,1-4.871,8.984c.216-.334-1.03-2.874-1.517-2.971-.849-.174-1.948,1.322-2.408,1.886A11.942,11.942,0,0,0,974.4,563.644Z" transform="translate(-332.354 -199.361)" fill="#94c2ff"/>
    <rect id="Rectangle_119" data-name="Rectangle 119" width="54.299" height="54.299" transform="translate(647.742 373.19)" fill="#fff"/>
    <path id="Path_1567" data-name="Path 1567" d="M1058.357,627.091a21.946,21.946,0,0,0-2.575,2.7,5.378,5.378,0,0,0-1.183,3.479,1.789,1.789,0,0,0,.334,1.016.87.87,0,0,0,.967.3,1.392,1.392,0,0,0,.473-.424,22.268,22.268,0,0,1,1.6-1.74c.209-.2.473-.418.752-.341a.793.793,0,0,1,.327.216,2.213,2.213,0,0,1,.7,1.051,2.49,2.49,0,0,1-.738,2.025,5.248,5.248,0,0,0-1.246,1.844.786.786,0,0,0,0,.591.967.967,0,0,0,.369.32,5.372,5.372,0,0,0,4.5.292c.967-.383,1.8-1.051,2.784-1.392a6.693,6.693,0,0,0,1.232-.459,2.533,2.533,0,0,0,1.092-1.628,6.957,6.957,0,0,0,.077-2.011,22.965,22.965,0,0,0-1.677-7.585.905.905,0,0,0-.271-.4.954.954,0,0,0-.459-.132c-1.218-.125-3.222-.752-4.4-.3a3.007,3.007,0,0,0-1.037.926C1059.707,625.678,1058.357,626.771,1058.357,627.091Z" transform="translate(-356.754 -223.992)" fill="#a1616a"/>
    <path id="Path_1568" data-name="Path 1568" d="M1051.93,607.263c0-1.169-1.447-3.973.842-4.175,0-1.239-1.761-2.018-1.44-3.326.111-.445.466-.8.522-1.246.146-1.273-2.15-1.962-1.775-3.187.139-.466.647-.752.758-1.225.257-1.1-1.712-1.594-1.747-2.721,0-.383.209-.745.195-1.12,0-.48-.417-.842-.647-1.253-.591-1.065-.306-2.714-1.392-3.257.7.056.967-1.009.661-1.663s-.9-1.218-.9-1.941a3.081,3.081,0,0,0,0-.8c-.2-.7-1.343-.745-1.531-1.44a7.411,7.411,0,0,1,0-.786c-.07-.543-.626-.877-1.148-1.037a4.564,4.564,0,0,1-1.531-.543c-.334-.258-.7-.7-1.079-.452-.132.077-.2.23-.306.348-.425.494-1.239.278-1.781-.09a7.368,7.368,0,0,1-2.728-4.913c-.348-1.893-.327-3.848-.745-5.727a13.115,13.115,0,0,0-.508-1.712,8.862,8.862,0,0,1-.807-1.712c-.084-1.093,2.185-.348,3.048-.237a13.525,13.525,0,0,1,2.477.466,26.193,26.193,0,0,1,2.526,1.106c3.479,1.524,7.6,1.712,10.369,4.266.912.842,1.677,1.941,2.853,2.317a14.563,14.563,0,0,1,1.6.417c1.315.619,1.517,2.359,2.234,3.619a7.762,7.762,0,0,1,.591,1.044,4.116,4.116,0,0,1,.188,1.336l.1,3.305a122.086,122.086,0,0,1-.265,16.59,13.7,13.7,0,0,0,.063,5.428c.139.473.341.926.459,1.392a9.474,9.474,0,0,1,.181,1.719l.077,2.136a.516.516,0,0,1-.682.633c-2.985-.264-5.992-1.948-8.81-.932" transform="translate(-350.744 -205.242)" fill="#464353"/>
    <path id="Path_1569" data-name="Path 1569" d="M979.31,613.873a.918.918,0,0,0-.334.278,2.373,2.373,0,0,0,0,2.825.954.954,0,0,1,.167.278.822.822,0,0,1-.083.473,1.566,1.566,0,0,0,.216,1.754c.216.181.508.271.647.508.244.4-.1.919-.042,1.392.07.619.8.926,1.392,1a1.482,1.482,0,0,0,1.357-.362,1.127,1.127,0,0,0,0-1.232,3.3,3.3,0,0,0-.919-.919,1.392,1.392,0,0,0,1.315-1.273,1.976,1.976,0,0,0-.793-1.733c-.125-.1-.278-.209-.313-.376s.132-.4.285-.557c.7-.7,1.232-2.4-.077-2.784a3.222,3.222,0,0,0-1.392.063c-.334.1-.334.306-.591.445S979.6,613.727,979.31,613.873Z" transform="translate(-333.614 -220.571)" fill="#a1616a"/>
    <path id="Path_1570" data-name="Path 1570" d="M997,545.14a2.3,2.3,0,0,0-1.767.891,5.087,5.087,0,0,0-.738,2.366,20.743,20.743,0,0,1-2.783,7.557" transform="translate(-337.628 -199.903)" opacity="0.1"/>
    <path id="Path_1571" data-name="Path 1571" d="M1000.532,547.88a2.7,2.7,0,0,0-2.31,1.392,7.727,7.727,0,0,0-.584,2.359,12.819,12.819,0,0,1-2.317,4.948" transform="translate(-338.726 -200.736)" opacity="0.1"/>
    <path id="Path_1572" data-name="Path 1572" d="M343.057,608.38c.4,4.4-2.916,8.657-1.948,12.957.209.919.605,1.788.752,2.714.4,2.554-1.127,4.976-2.582,7.112l-12.484,18.329a11.876,11.876,0,0,1-1.788,2.206c-2.394,2.088-5.971,1.9-9.109,2.533a15.623,15.623,0,0,0-6.1,2.7.4.4,0,0,0-.083.55,5.254,5.254,0,0,0,4.537,2.129c.327.431,0,1.065-.452,1.392-.7.466-1.594.585-1.726,1.726a1.865,1.865,0,0,0,.23,1.141,3.529,3.529,0,0,0,2.185,1.517c4.321,1.322,9-1,12.227-4.175s5.567-7.147,8.74-10.369c1.761-1.774,3.758-3.305,5.567-5.031,3.619-3.438,6.423-7.655,9.137-11.83a13.131,13.131,0,0,0,1.976-4.022c.334-1.433.181-2.943.571-4.363.5-1.851,1.865-3.333,2.992-4.871a16.17,16.17,0,0,0,3.4-10.543c-.292-3.758-2.616-7.474-6.165-8.747a5.518,5.518,0,0,0-3.479-.216A8.4,8.4,0,0,0,345.937,604l-2.366,2.742a6.318,6.318,0,0,0-1.392,2.088,2.192,2.192,0,0,0,.487,2.331" transform="translate(-130.195 -216.902)" fill="#fbbebe"/>
    <path id="Path_1573" data-name="Path 1573" d="M343.057,608.38c.4,4.4-2.916,8.657-1.948,12.957.209.919.605,1.788.752,2.714.4,2.554-1.127,4.976-2.582,7.112l-12.484,18.329a11.876,11.876,0,0,1-1.788,2.206c-2.394,2.088-5.971,1.9-9.109,2.533a15.623,15.623,0,0,0-6.1,2.7.4.4,0,0,0-.083.55,5.254,5.254,0,0,0,4.537,2.129c.327.431,0,1.065-.452,1.392-.7.466-1.594.585-1.726,1.726a1.865,1.865,0,0,0,.23,1.141,3.529,3.529,0,0,0,2.185,1.517c4.321,1.322,9-1,12.227-4.175s5.567-7.147,8.74-10.369c1.761-1.774,3.758-3.305,5.567-5.031,3.619-3.438,6.423-7.655,9.137-11.83a13.131,13.131,0,0,0,1.976-4.022c.334-1.433.181-2.943.571-4.363.5-1.851,1.865-3.333,2.992-4.871a16.17,16.17,0,0,0,3.4-10.543c-.292-3.758-2.616-7.474-6.165-8.747a5.518,5.518,0,0,0-3.479-.216A8.4,8.4,0,0,0,345.937,604l-2.366,2.742a6.318,6.318,0,0,0-1.392,2.088,2.192,2.192,0,0,0,.487,2.331" transform="translate(-130.195 -216.902)" opacity="0.05"/>
    <path id="Path_1574" data-name="Path 1574" d="M218.131,626.157c.7,2.2,1.392,4.4,2.234,6.541a55.352,55.352,0,0,0,5.783,10.549,76.006,76.006,0,0,0,4.781,6.263c2.129,2.512,4.509,5.038,5.261,8.246a41.768,41.768,0,0,1,.473,5.685,6.942,6.942,0,0,0,2.331,5.038,8.663,8.663,0,0,0,3.841,1.267c.96.153,2.164.2,2.665-.633a2.373,2.373,0,0,0,.264-1.1L246,665.23c.049-.6.257-1.392.856-1.392s.9.772,1.392,1.127a1.51,1.51,0,0,0,2.088-.7,3.479,3.479,0,0,0,.056-2.436,11.565,11.565,0,0,0-5.936-7.355,17.845,17.845,0,0,1-2.895-1.51,9.846,9.846,0,0,1-2.276-2.867c-5.261-8.664-10.549-17.4-14.265-26.8a19.825,19.825,0,0,1-1.468-5.282,34.1,34.1,0,0,1,.23-5.567,31.866,31.866,0,0,0-.919-9.937,7.814,7.814,0,0,0-.953-2.415c-1.524-2.324-5.122-2.665-7.39-1.065a7.613,7.613,0,0,0-2.937,5.372c-.167,1.872.919,3.827,1.468,5.567Q215.6,618.064,218.131,626.157Z" transform="translate(-100.368 -215.995)" fill="#a1616a"/>
    <path id="Path_1575" data-name="Path 1575" d="M218.131,626.157c.7,2.2,1.392,4.4,2.234,6.541a55.352,55.352,0,0,0,5.783,10.549,76.006,76.006,0,0,0,4.781,6.263c2.129,2.512,4.509,5.038,5.261,8.246a41.768,41.768,0,0,1,.473,5.685,6.942,6.942,0,0,0,2.331,5.038,8.663,8.663,0,0,0,3.841,1.267c.96.153,2.164.2,2.665-.633a2.373,2.373,0,0,0,.264-1.1L246,665.23c.049-.6.257-1.392.856-1.392s.9.772,1.392,1.127a1.51,1.51,0,0,0,2.088-.7,3.479,3.479,0,0,0,.056-2.436,11.565,11.565,0,0,0-5.936-7.355,17.845,17.845,0,0,1-2.895-1.51,9.846,9.846,0,0,1-2.276-2.867c-5.261-8.664-10.549-17.4-14.265-26.8a19.825,19.825,0,0,1-1.468-5.282,34.1,34.1,0,0,1,.23-5.567,31.866,31.866,0,0,0-.919-9.937,7.814,7.814,0,0,0-.953-2.415c-1.524-2.324-5.122-2.665-7.39-1.065a7.613,7.613,0,0,0-2.937,5.372c-.167,1.872.919,3.827,1.468,5.567Q215.6,618.064,218.131,626.157Z" transform="translate(-100.368 -215.995)" opacity="0.05"/>
    <path id="Path_1576" data-name="Path 1576" d="M367.98,754.967c-2.728,1.663-6.124,1.761-9.3,1.392-.508-.063-1.113-.1-1.44.292-.473.571.083,1.392.661,1.879a13.834,13.834,0,0,0,6.388,2.623,43.569,43.569,0,0,0,6.263.418,105.9,105.9,0,0,0,17.07-.633,2.263,2.263,0,0,0,.932-.271,1.768,1.768,0,0,0,.7-1.072,4.266,4.266,0,0,0-1.489-4.064,12.526,12.526,0,0,0-3.98-2.136l-4.955-1.928c-1.162-.452-3.034-1.656-4.294-1.559C372.2,750.061,369.949,753.811,367.98,754.967Z" transform="translate(-144.617 -262.176)" fill="#3f3d56"/>
    <path id="Path_1577" data-name="Path 1577" d="M386.191,771a12.171,12.171,0,0,1-8.316,3.1c-.779,0-1.865.146-1.865.926a1.225,1.225,0,0,0,.223.647,7.655,7.655,0,0,0,4.3,3.368,15.31,15.31,0,0,0,5.191.327l5.08-.264c.96-.049,1.928-.1,2.881-.216s1.99-.313,2.985-.466a39.81,39.81,0,0,1,7.4-.348,2.15,2.15,0,0,0,1.823-.487c.452-.571.188-1.392.042-2.088-.306-1.468,0-3.013-.285-4.5-.487-2.589-2.714-4.579-5.184-5.518-2.282-.87-6.332-1.865-8.5-.418C389.642,766.607,388.243,769.14,386.191,771Z" transform="translate(-150.379 -266.566)" fill="#3f3d56"/>
    <path id="Path_1578" data-name="Path 1578" d="M374.577,667.151c-2.088,2.749-4.175,5.922-3.688,9.318.278,1.83,1.3,3.445,2.053,5.143a36.25,36.25,0,0,1,2.088,7.223c.772,3.6,1.545,7.2,2.025,10.849a67.753,67.753,0,0,1,.452,12.456,4.2,4.2,0,0,1-.87,2.784c-.278.278-.64.508-.759.884a1.5,1.5,0,0,0,.16,1.044,11.558,11.558,0,0,0,6.193,5.7,23.722,23.722,0,0,0,8.42,1.573,2.366,2.366,0,0,0,1.127-.146,2.171,2.171,0,0,0,.87-1c2.088-3.967.926-8.754.96-13.222,0-3.737.9-7.439.745-11.176-.132-2.992-.932-5.915-1.225-8.9-.48-4.871.418-9.812,1.315-14.648.7-3.7,1.392-7.411,2.262-11.078a21.126,21.126,0,0,1,2.394-6.43c.974-1.538,2.3-2.825,3.41-4.273a19.394,19.394,0,0,0,3.813-14.175c-.07-.5-7.167,1.8-7.78,2.088a24.123,24.123,0,0,0-6.959,4.461,57.607,57.607,0,0,0-4.37,5.4q-3.048,3.709-6,7.46Q377.848,662.787,374.577,667.151Z" transform="translate(-148.8 -228.45)" fill="#464353"/>
    <path id="Path_1579" data-name="Path 1579" d="M374.577,667.151c-2.088,2.749-4.175,5.922-3.688,9.318.278,1.83,1.3,3.445,2.053,5.143a36.25,36.25,0,0,1,2.088,7.223c.772,3.6,1.545,7.2,2.025,10.849a67.753,67.753,0,0,1,.452,12.456,4.2,4.2,0,0,1-.87,2.784c-.278.278-.64.508-.759.884a1.5,1.5,0,0,0,.16,1.044,11.558,11.558,0,0,0,6.193,5.7,23.722,23.722,0,0,0,8.42,1.573,2.366,2.366,0,0,0,1.127-.146,2.171,2.171,0,0,0,.87-1c2.088-3.967.926-8.754.96-13.222,0-3.737.9-7.439.745-11.176-.132-2.992-.932-5.915-1.225-8.9-.48-4.871.418-9.812,1.315-14.648.7-3.7,1.392-7.411,2.262-11.078a21.126,21.126,0,0,1,2.394-6.43c.974-1.538,2.3-2.825,3.41-4.273a19.394,19.394,0,0,0,3.813-14.175c-.07-.5-7.167,1.8-7.78,2.088a24.123,24.123,0,0,0-6.959,4.461,57.607,57.607,0,0,0-4.37,5.4q-3.048,3.709-6,7.46Q377.848,662.787,374.577,667.151Z" transform="translate(-148.8 -228.45)" opacity="0.05"/>
    <path id="Path_1580" data-name="Path 1580" d="M393.424,644.439c.445,2.129,2.512,3.758,2.568,5.936.049,1.74-1.19,3.2-2.088,4.7a31.51,31.51,0,0,0-2.129,4.829,73.635,73.635,0,0,1-6.263,12.435c-1.19,1.893-2.526,3.946-2.248,6.166a9.1,9.1,0,0,0,1.079,2.944l3.577,7.1a20.39,20.39,0,0,1,1.823,4.488c.313,1.35.341,2.783.522,4.12.564,4.356,2.6,8.74,1.392,12.964-.1.362-.487.8-.772.55a13.538,13.538,0,0,1,2.039,6.959c-.042,1.315-.445,2.679.042,3.9a4.258,4.258,0,0,1,.543,1.489c0,.355-.167.7-.2,1.051a2.327,2.327,0,0,0,1.781,2.164c.96.32,2,.3,2.971.585,1.865.557,3.187,2.157,4.788,3.271a10.056,10.056,0,0,0,5.49,1.788,1.393,1.393,0,0,0,.807-.16,1.322,1.322,0,0,0,.452-.981A5.456,5.456,0,0,0,407.626,726a2.191,2.191,0,0,1-.7-.765,1.858,1.858,0,0,1-.07-.856,63.461,63.461,0,0,0-.209-11.725,18.1,18.1,0,0,1-.181-3.73,15.248,15.248,0,0,0,.3-3.111,15.878,15.878,0,0,0-.953-2.971,20.829,20.829,0,0,1-.452-5.567,48.8,48.8,0,0,0-1.573-9.526,7.23,7.23,0,0,0-1.482-3.438c-.745-.779-1.948-1.517-1.663-2.554a2.951,2.951,0,0,1,.7-1.016,4.078,4.078,0,0,0,.856-3.111,1.392,1.392,0,0,0,1.6-.752,25.051,25.051,0,0,0,12.581-14.307,4.648,4.648,0,0,1,.564-1.274,5.806,5.806,0,0,1,2.3-1.5c2.6-1.308,4.4-3.765,6.047-6.165a14.342,14.342,0,0,0,2.338-4.474,14.743,14.743,0,0,0,.32-3.229l.146-5.567a3.2,3.2,0,0,0-.1-1.093,2.783,2.783,0,0,0-.605-.891,10.807,10.807,0,0,0-5.943-3.2c-1.524-.271-3.083-.223-4.628-.348-2.992-.25-5.95-1.176-8.949-.96-4.7.348-8.893,3.612-11.134,7.773C395.915,643.138,395.094,644.391,393.424,644.439Z" transform="translate(-152.574 -226.88)" fill="#464353"/>
    <path id="Path_1581" data-name="Path 1581" d="M173.029,764.439a7.577,7.577,0,0,0,3.2.383c.077-.884,1.266-1.079,2.15-1.037a2.471,2.471,0,0,1,1.266.278c.223.139.39.348.605.494a2.6,2.6,0,0,0,1.253.32l4.607.39a13.794,13.794,0,0,0,6.11-.4,2,2,0,0,0,.981-.654c.522-.745,0-1.816-.7-2.359s-1.649-.793-2.373-1.35c-1.6-1.218-1.816-3.479-2.665-5.317a15.342,15.342,0,0,0-2.2-3.194,12.229,12.229,0,0,0-2.178-2.227c-1.844-1.336-3.973-1.308-6.138-1.5-1.531-.139-2.971-.23-4.071,1.127-1.357,1.684-.814,5.08-.731,7.091a50.756,50.756,0,0,0,.877,7.954Z" transform="translate(-88.327 -261.656)" fill="#514e7f"/>
    <path id="Path_1582" data-name="Path 1582" d="M173.029,764.439a7.577,7.577,0,0,0,3.2.383c.077-.884,1.266-1.079,2.15-1.037a2.471,2.471,0,0,1,1.266.278c.223.139.39.348.605.494a2.6,2.6,0,0,0,1.253.32l4.607.39a13.794,13.794,0,0,0,6.11-.4,2,2,0,0,0,.981-.654c.522-.745,0-1.816-.7-2.359s-1.649-.793-2.373-1.35c-1.6-1.218-1.816-3.479-2.665-5.317a15.342,15.342,0,0,0-2.2-3.194,12.229,12.229,0,0,0-2.178-2.227c-1.844-1.336-3.973-1.308-6.138-1.5-1.531-.139-2.971-.23-4.071,1.127-1.357,1.684-.814,5.08-.731,7.091a50.756,50.756,0,0,0,.877,7.954Z" transform="translate(-88.327 -261.656)" opacity="0.05"/>
    <path id="Path_1583" data-name="Path 1583" d="M171.452,641.23c-1.392.452-2.018,2.206-1.761,3.667a13.168,13.168,0,0,0,1.858,4c2.046,3.667,2.937,7.863,4.655,11.691,1.287,2.86,3.027,5.5,4.3,8.351s2.088,6.1,1.287,9.144c-.376,1.482-1.1,2.846-1.587,4.294a24.356,24.356,0,0,0-.932,4.871,92.329,92.329,0,0,0-.334,16.812,5.108,5.108,0,0,0,.424,1.99c.285.557.786,1.141.543,1.719-.1.23-.306.4-.411.626-.292.64.3,1.308.835,1.761a1.441,1.441,0,0,1-.9.7,2.137,2.137,0,0,1,.912,2.38c-.48.07-.508.8-.2,1.183s.772.626.988,1.058a1.482,1.482,0,0,1-.814,1.865,3.814,3.814,0,0,1-2.22.167,24.065,24.065,0,0,1-3.716-.814,3.339,3.339,0,0,1-1.141-.522,3.389,3.389,0,0,1-1.023-2.255,40.746,40.746,0,0,1-.257-6.959c.2-11.245,0-22.5-.487-33.743a38.638,38.638,0,0,0-3.312-13.11,67.263,67.263,0,0,0-3.229-6.263c-2.519-4.635-4.76-9.742-4.175-15,.063-.564.271-1.246.828-1.336a1.2,1.2,0,0,1,.64.1,29.6,29.6,0,0,1,3.375,1.865A12.79,12.79,0,0,0,171.452,641.23Z" transform="translate(-84.885 -227.992)" fill="#464353"/>
    <path id="Path_1584" data-name="Path 1584" d="M171.452,641.23c-1.392.452-2.018,2.206-1.761,3.667a13.168,13.168,0,0,0,1.858,4c2.046,3.667,2.937,7.863,4.655,11.691,1.287,2.86,3.027,5.5,4.3,8.351s2.088,6.1,1.287,9.144c-.376,1.482-1.1,2.846-1.587,4.294a24.356,24.356,0,0,0-.932,4.871,92.329,92.329,0,0,0-.334,16.812,5.108,5.108,0,0,0,.424,1.99c.285.557.786,1.141.543,1.719-.1.23-.306.4-.411.626-.292.64.3,1.308.835,1.761a1.441,1.441,0,0,1-.9.7,2.137,2.137,0,0,1,.912,2.38c-.48.07-.508.8-.2,1.183s.772.626.988,1.058a1.482,1.482,0,0,1-.814,1.865,3.814,3.814,0,0,1-2.22.167,24.065,24.065,0,0,1-3.716-.814,3.339,3.339,0,0,1-1.141-.522,3.389,3.389,0,0,1-1.023-2.255,40.746,40.746,0,0,1-.257-6.959c.2-11.245,0-22.5-.487-33.743a38.638,38.638,0,0,0-3.312-13.11,67.263,67.263,0,0,0-3.229-6.263c-2.519-4.635-4.76-9.742-4.175-15,.063-.564.271-1.246.828-1.336a1.2,1.2,0,0,1,.64.1,29.6,29.6,0,0,1,3.375,1.865A12.79,12.79,0,0,0,171.452,641.23Z" transform="translate(-84.885 -227.992)" opacity="0.05"/>
    <path id="Path_1585" data-name="Path 1585" d="M143.784,622.872a3.71,3.71,0,0,0-5.115.55,27.948,27.948,0,0,0-2.644,2.324,14.147,14.147,0,0,0-3.159,13.994,27.963,27.963,0,0,0,3.869,6.861L139.8,651c4.669,6.708,9.346,13.417,14.238,19.965a.751.751,0,0,0,.529.7c.181.049.4.042.508.188a.543.543,0,0,1,.063.3,4.543,4.543,0,0,1-.271,1.392.647.647,0,0,0-.056.48c.153.369.828.16,1.037.508a.553.553,0,0,1-.223.7.8.8,0,0,0-.383.7c.035.285.5.55.48.9,0,.195-.167.341-.285.494a1.26,1.26,0,0,0,.153,1.607c.32,3.2-1.392,6.228-1.761,9.429-.55,5.031,1.726,9.944,2,15a4.015,4.015,0,0,0,.313,1.656c.473.87,1.684,1.392,1.642,2.387a9.108,9.108,0,0,1-.341,1.2,9.68,9.68,0,0,0,.181,1.719c0,.578-.487,1.266-1.023,1.044q.605,2,1.072,4.043l10.716.884a9.624,9.624,0,0,0-.1-2.895c-.223-1.03-.7-2-.932-3.027a3.57,3.57,0,0,1,.425-3.027,1.183,1.183,0,0,1-1.183-.974,4.773,4.773,0,0,1,0-1.663c.285-2.784-.891-5.567-.856-8.351.035-2.213.807-4.335,1.2-6.506.835-4.648-.035-9.694,2.032-13.917,1.253-2.561,2.985-5.4,1.58-7.877-.7-1.225-1.914-2.088-2.707-3.215a13.062,13.062,0,0,1-1.454-3.479c-1.656-5.122-4.321-9.847-6.666-14.7a15.468,15.468,0,0,1-1.434-3.862,19.63,19.63,0,0,1-.174-3.563,54.61,54.61,0,0,0-.4-6.4,4.667,4.667,0,0,0-2.449-4.175C151.766,626.254,147.577,624.87,143.784,622.872Z" transform="translate(-76.228 -223.308)" fill="#464353"/>
    <path id="Path_1586" data-name="Path 1586" d="M166.817,770.082a7.577,7.577,0,0,0,3.2.383c.083-.884,1.266-1.079,2.15-1.037a2.471,2.471,0,0,1,1.232.285c.223.139.39.348.612.494a2.561,2.561,0,0,0,1.253.32l4.6.39a13.832,13.832,0,0,0,6.117-.4,2.01,2.01,0,0,0,.974-.654c.522-.745,0-1.816-.7-2.359s-1.649-.793-2.38-1.35c-1.594-1.218-1.816-3.479-2.665-5.316a15.343,15.343,0,0,0-2.2-3.194,12.193,12.193,0,0,0-2.171-2.227c-1.851-1.336-3.973-1.308-6.138-1.5-1.538-.139-2.978-.23-4.071,1.127-1.392,1.684-.821,5.08-.738,7.091a51.7,51.7,0,0,0,.919,7.947Z" transform="translate(-86.423 -263.374)" fill="#514e7f"/>
    <rect id="Rectangle_120" data-name="Rectangle 120" width="54.299" height="54.299" transform="translate(138.5 425.994)" fill="#fff"/>
    <circle id="Ellipse_102" data-name="Ellipse 102" cx="10.612" cy="10.612" r="10.612" transform="translate(117.269 359.788)" fill="#a1616a"/>
    <path id="Path_1587" data-name="Path 1587" d="M212.209,584.925c-1.524,1.315-3.7,1.392-5.7,1.614a35.623,35.623,0,0,0-12.261,3.549,4.378,4.378,0,0,0-1.392.974,4.015,4.015,0,0,0-.7,1.517,10.034,10.034,0,0,0-.4,3.688,10.633,10.633,0,0,0,1.023,3.479,18.678,18.678,0,0,0,6.583,7.5,4.781,4.781,0,0,0,1.6.765c1.392.292,2.749-.522,4.12-.884a6.75,6.75,0,0,1,3.806.125c1.155.383,2.373,1.086,3.479.619a3.632,3.632,0,0,0,1.587-1.8,61.164,61.164,0,0,0,2.895-6.339,24.033,24.033,0,0,1,1.051-2.463c1.232-2.345,3.361-4.175,4.419-6.583a1.448,1.448,0,0,0,.1-1.239,1.718,1.718,0,0,0-.779-.6,18.6,18.6,0,0,1-4.238-3.326c-.7-.7-1.983-2.477-2.985-2.637C213.315,582.74,212.974,584.271,212.209,584.925Z" transform="translate(-94.334 -211.379)" fill="#a1616a"/>
    <path id="Path_1588" data-name="Path 1588" d="M198.969,609.7a6.332,6.332,0,0,1-4.015.049,44.312,44.312,0,0,1-10.09-2.937,5.4,5.4,0,0,1-2.477-1.9,6.076,6.076,0,0,1-.7-2.38l-.585-3.946a23.926,23.926,0,0,1,.181-4.05,1.183,1.183,0,0,0-.23-.884.953.953,0,0,0-.7-.216c-1.594,0-2.554,1.691-3.674,2.825a6.784,6.784,0,0,1-2.255,1.517c-1.023.417-2.282.7-2.693,1.733-.174.424-.153.912-.327,1.336-.7,1.7-3.758,1.134-4.53,2.784-.223.473-.209,1.072-.578,1.447s-1.044.362-1.6.459c-2.213.362-3.291,2.923-5.184,4.127-1.594,1.016-3.646,1-5.358,1.788a20.518,20.518,0,0,1-2.784,1.392,13.158,13.158,0,0,1-3.229.16.87.87,0,0,0-.647.209.891.891,0,0,0-.1.7,19.533,19.533,0,0,0,12.073,15.121,4.258,4.258,0,0,1,1.03.494c.967.7,1.134,2.276,2.227,2.784a2.3,2.3,0,0,0,2.324-.5,20.219,20.219,0,0,0,1.677-1.851A6.681,6.681,0,0,1,170.465,628c1.315-.209,2.783-.056,3.848-.863a11.828,11.828,0,0,0,1.211-1.294,7.592,7.592,0,0,1,2.784-1.642,27.833,27.833,0,0,1,8.7-1.837c2.783-.16,5.671.1,8.309-.814a4.87,4.87,0,0,0,1.851-1.044,5.567,5.567,0,0,0,1.239-2.15A16.416,16.416,0,0,0,198.969,609.7Z" transform="translate(-80.844 -214.59)" fill="#94c2ff"/>
    <path id="Path_1589" data-name="Path 1589" d="M199.266,594.24c.786-.07,1.573,0,2.359,0,.926,0,1.837-.223,2.784-.23a6.861,6.861,0,0,1,6.472,4.927,1.253,1.253,0,0,1,.042.7.494.494,0,0,1-.536.362,11.76,11.76,0,0,0-1.19-2.387,6.757,6.757,0,0,0-3.563-2.477,9.248,9.248,0,0,0-4.384-.16c-.6.111-1.19.271-1.781.438l-2.888.779c-.522.139-1.044.285-1.552.473-.39.139-1.065.7-1.447.7-.522,0-.1-.452.132-.759a3.716,3.716,0,0,1,1.851-1.343A15.573,15.573,0,0,1,199.266,594.24Z" transform="translate(-94.822 -214.765)" fill="#514e7f"/>
    <path id="Path_1590" data-name="Path 1590" d="M209.289,627.858c.7,2.2,1.392,4.4,2.234,6.541a55.352,55.352,0,0,0,5.79,10.55,76.03,76.03,0,0,0,4.781,6.263c2.129,2.512,4.509,5.038,5.261,8.246a41.765,41.765,0,0,1,.473,5.685,6.942,6.942,0,0,0,2.331,5.038A8.664,8.664,0,0,0,234,671.448c.96.153,2.164.2,2.665-.633a2.373,2.373,0,0,0,.264-1.1l.23-2.783c.056-.6.264-1.392.863-1.392s.9.772,1.392,1.127a1.51,1.51,0,0,0,2.088-.7,3.528,3.528,0,0,0,.056-2.435,11.565,11.565,0,0,0-5.922-7.362,17.838,17.838,0,0,1-2.895-1.51,9.741,9.741,0,0,1-2.275-2.867c-5.268-8.664-10.556-17.4-14.265-26.8a19.826,19.826,0,0,1-1.468-5.282,34.1,34.1,0,0,1,.23-5.567,31.864,31.864,0,0,0-.9-9.951,7.815,7.815,0,0,0-.953-2.415c-1.524-2.324-5.122-2.665-7.39-1.065a7.613,7.613,0,0,0-2.937,5.372c-.167,1.872.919,3.827,1.468,5.567Q206.77,619.765,209.289,627.858Z" transform="translate(-97.691 -216.506)" fill="#a1616a"/>
    <path id="Path_1591" data-name="Path 1591" d="M241.334,566.558c.083-.884-.7-1.684-1.607-2.248a22.449,22.449,0,0,1-2.728-1.67c-.807-.7-1.246-1.607-2.053-2.3a9.047,9.047,0,0,0-3.062-1.524,23.242,23.242,0,0,0-7.321-1.315,12.894,12.894,0,0,0-7.007,1.851,4.175,4.175,0,0,0-1.19,1.107,4.872,4.872,0,0,0-.578,1.761,34.8,34.8,0,0,1-1.83,5.567,12.916,12.916,0,0,1-3.479,5.623c-1.983,1.656-5.024,2.609-6.332,4.607a1.5,1.5,0,0,0-.285,1.287c.188.5.793.842,1.343,1.162,3.222,1.851,6,4.245,7.432,7.112a8.246,8.246,0,0,1-.654,8.872c-.745.974-1.774,2.129-1.044,3.111,1.106,1.489,4.927.64,5.8,2.213a3.145,3.145,0,0,1,.118,1.628c0,1.649,1.594,3.124,3.528,3.883a19.673,19.673,0,0,0,6.346,1.044,5.484,5.484,0,0,0,.16-4.106,1.642,1.642,0,0,1-.16-.932,2.241,2.241,0,0,1,.7-.9c2.331-2.2,1.837-5.435.438-8.044s-3.57-5-4.377-7.752a3.937,3.937,0,0,1,.7-4.036,14.052,14.052,0,0,1,2-1.461,7.592,7.592,0,0,0,2.784-3.479c.647-1.809.55-3.987,2.456-5.184s4.377-.807,6.388-1.58A6.847,6.847,0,0,0,241.334,566.558Z" transform="translate(-98.012 -203.66)" fill="#464353"/>
    <circle id="Ellipse_103" data-name="Ellipse 103" cx="11.572" cy="11.572" r="11.572" transform="translate(191.255 355.077)" fill="#fbbebe"/>
    <path id="Path_1592" data-name="Path 1592" d="M353.379,574.24a15,15,0,0,0,9.6,6.715l-.87,3.159c-1.5,5.442-3.2,11.2-7.4,14.975a7,7,0,0,0-1.176-5.414,20.5,20.5,0,0,0-3.925-4.106l-6.66-5.8a1.816,1.816,0,0,1-.5-.557,1.7,1.7,0,0,1,0-1.266c.849-2.644,3.271-4.294,5.233-6.075a18.457,18.457,0,0,0,2.637-3.069C351.681,570.928,352.537,572.827,353.379,574.24Z" transform="translate(-140.134 -208.078)" fill="#fbbebe"/>
    <path id="Path_1593" data-name="Path 1593" d="M358.062,591.32a6.262,6.262,0,0,1-.341,2.554,1.8,1.8,0,0,1-2.088,1.072c.244-.55-.4-1.176-1-1.106a1.872,1.872,0,0,0-1.322,1.12,4.176,4.176,0,0,0-.383,2.589c.188,1.1.821,2.15.654,3.25-.132.912-.807,1.823-.445,2.679a4.3,4.3,0,0,0,.863,1.03,2.923,2.923,0,0,1-.313,4.008l9.046.174a6.346,6.346,0,0,0,1.12,4.391,27.647,27.647,0,0,0,20.612,13.458,1.8,1.8,0,0,0-.431,2.742,2.538,2.538,0,0,0,2.895.167,21.971,21.971,0,0,0,2.484-1.858,7.592,7.592,0,0,1,5.094-1.392c1.134.1,2.227.466,3.361.529,3.34.181,6.214-2.227,9.408-3.208,2.345-.7,5-.7,6.959-2.185a2.759,2.759,0,0,0,1.294-2.686,4.378,4.378,0,0,0-.974-1.573,28.011,28.011,0,0,1-2.609-4.871,29.081,29.081,0,0,0-6.52-8.726,57.559,57.559,0,0,0-6.458-4.906,10.932,10.932,0,0,0-1.754-1.051,17.96,17.96,0,0,1-2.394-.974,13.361,13.361,0,0,1-2.484-2.783c-1.788-2.088-4.537-3.041-6.743-4.683-1.475-1.1-2.784-2.547-4.544-3.083-.856-.257-1.774-.278-2.63-.536-1.948-.591-3.368-2.324-5.282-3.02-1.51-.557-3.18-.411-4.781-.612a11.134,11.134,0,0,1-4.913-1.858,5.907,5.907,0,0,0-1.587-.932c-2.415-.7-2.61,3.772-2.839,5.33A44.687,44.687,0,0,0,358.062,591.32Z" transform="translate(-143.342 -210.19)" fill="#3f3d56"/>
    <path id="Path_1594" data-name="Path 1594" d="M349.1,615.219c.4,4.391-2.916,8.65-1.948,12.957.209.919.6,1.788.745,2.714.4,2.554-1.12,4.969-2.575,7.1L332.8,656.324a11.134,11.134,0,0,1-1.781,2.206c-2.394,2.122-5.971,1.9-9.109,2.54a15.594,15.594,0,0,0-6.1,2.7.4.4,0,0,0-.077.543,5.233,5.233,0,0,0,4.537,2.129c.327.431,0,1.072-.452,1.392-.7.466-1.594.591-1.726,1.726a1.935,1.935,0,0,0,.223,1.148,3.563,3.563,0,0,0,2.192,1.517c4.321,1.322,8.991-1,12.227-4.175s5.567-7.147,8.74-10.369c1.761-1.781,3.758-3.305,5.567-5.031a65.783,65.783,0,0,0,9.137-11.83,13.166,13.166,0,0,0,1.976-4.029c.334-1.427.181-2.944.571-4.356.5-1.858,1.858-3.34,2.992-4.871a16.189,16.189,0,0,0,3.4-10.549c-.292-3.765-2.623-7.467-6.165-8.747a5.518,5.518,0,0,0-3.479-.209,8.291,8.291,0,0,0-3.521,2.784l-2.373,2.742a6.513,6.513,0,0,0-1.392,2.088A2.192,2.192,0,0,0,348.67,618" transform="translate(-132.023 -218.981)" fill="#fbbebe"/>
    <path id="Path_1595" data-name="Path 1595" d="M369.27,592.435c-1.642.1-3.479.257-4.614,1.392a6.443,6.443,0,0,0-1.155,1.823,18.011,18.011,0,0,0-2.3,7.244,32.665,32.665,0,0,0,.835,6.054c.257,1.677-.4,3.389-.522,5.087a34.731,34.731,0,0,0,6.569-2.526,21.962,21.962,0,0,1,3.848-2c1.955-.654,5.254.466,7.1,1.392.1-1.308-.877-3.584-.772-4.871a5.337,5.337,0,0,1,.292-1.621,9.665,9.665,0,0,1,.981-1.566,6.409,6.409,0,0,0-.578-7.522c-1.649-1.858-4.238-2.554-6.708-2.846a29.337,29.337,0,0,0-4.69-.16" transform="translate(-145.873 -214.241)" fill="#3f3d56"/>
    <path id="Path_1596" data-name="Path 1596" d="M320.065,555.128l-.264-2.178c1.83.466,3.563-1.079,4.732-2.686s2.248-3.479,4.022-4.175c2.164-.814,4.454.487,6.52,1.559a20.408,20.408,0,0,0,7.481,2.477,5.3,5.3,0,0,1,1.239.2c1.343.48,1.983,2.164,2.178,3.7s.139,3.159.8,4.523c.508,1.03,1.392,1.8,1.893,2.783,1.392,2.735.049,6.479,1.545,9.165l-3.709-3.4c-.341-.313-.821-.64-1.19-.376s-.32.7-.445,1.023a1.941,1.941,0,0,1-2.637.96,7.23,7.23,0,0,1-2.359-2.157,14.419,14.419,0,0,0-5.887-4.461,7.523,7.523,0,0,0-6.228.369c-1.733.981-3,3.257-5.122,3.333-2.909.111-4.12-5.3-5.463-7.439a2.637,2.637,0,0,0,.765-3.285C318.137,555,320.023,554.794,320.065,555.128Z" transform="translate(-132.485 -200.114)" fill="#464353"/>
    <path id="Path_1597" data-name="Path 1597" d="M684.068,360a12.768,12.768,0,0,1-3.632,1,6.367,6.367,0,0,0,2.784-3.479,12.728,12.728,0,0,1-4.022,1.538,6.319,6.319,0,0,0-10.946,4.321,6.194,6.194,0,0,0,.16,1.447,17.919,17.919,0,0,1-13.041-6.625,6.353,6.353,0,0,0,1.962,8.462,6.166,6.166,0,0,1-2.874-.793v.076a6.34,6.34,0,0,0,5.081,6.214,6.577,6.577,0,0,1-1.671.222,6.157,6.157,0,0,1-1.19-.118,6.353,6.353,0,0,0,5.915,4.4,12.693,12.693,0,0,1-7.863,2.714,13.629,13.629,0,0,1-1.51-.09,17.724,17.724,0,0,0,9.687,2.86c11.656,0,18.023-9.652,18.023-18.03v-.814A12.861,12.861,0,0,0,684.068,360Z" transform="translate(-234.685 -142.695)" fill="#1379ff"/>
    <path id="Path_1598" data-name="Path 1598" d="M664.5,549.556l2.088,5.24,13.632,14.453,4.565-4.3,2.874,3.041,3.041-2.874.174-5.908,3.8-3.591.306-10.348-12.2-12.929Zm27.487-2.895-.174,5.915-4.565,4.3-.174,5.915-2.867-3.041-3.806,3.591L668.174,550.4l14.453-13.632Z" transform="translate(-238.116 -196.01)" fill="#1379ff"/>
    <path id="Path_1599" data-name="Path 1599" d="M685.723,548.26l2.282-2.15,5.79,6.131-2.282,2.143Zm-5.323,5.024,2.282-2.157,5.783,6.138-2.282,2.15Z" transform="translate(-242.952 -200.198)" fill="#1379ff"/>
    <path id="Path_1600" data-name="Path 1600" d="M291.635,676H269.312a1.392,1.392,0,0,0-1.392,1.392v22.331a1.392,1.392,0,0,0,1.392,1.392h11.134V691.17h-3v-3.66H280.5V684.8c0-3.236,2.248-5,5.143-5,1.392,0,2.881.1,3.222.153v3.382h-2.3c-1.573,0-1.879.745-1.879,1.844v2.331h3.751l-.487,3.66h-3.271v9.937h6.959a1.392,1.392,0,0,0,1.392-1.392V677.392A1.392,1.392,0,0,0,291.635,676Z" transform="translate(-117.506 -239.701)" fill="#1379ff"/>
    <path id="Path_1601" data-name="Path 1601" d="M574.719,446.088a5.24,5.24,0,0,1,5.226,5.226v10.438a5.24,5.24,0,0,1-5.226,5.226H564.281a5.247,5.247,0,0,1-3.7-1.531,5.184,5.184,0,0,1-1.538-3.7V451.314a5.24,5.24,0,0,1,5.233-5.226h10.438m0-2.088H564.281a7.341,7.341,0,0,0-7.321,7.321v10.438a7.341,7.341,0,0,0,7.321,7.321h10.438a7.341,7.341,0,0,0,7.321-7.293V451.348A7.348,7.348,0,0,0,574.719,444Z" transform="translate(-205.41 -169.144)" fill="#1379ff"/>
    <path id="Path_1602" data-name="Path 1602" d="M579.034,453.155a1.559,1.559,0,1,1,1.109-.457,1.573,1.573,0,0,1-1.109.457Zm-6.771,1.023a4.175,4.175,0,1,1-4.175,4.175,4.175,4.175,0,0,1,4.175-4.175m0-2.088a6.263,6.263,0,1,0,6.263,6.263A6.263,6.263,0,0,0,572.263,452.091Z" transform="translate(-208.16 -170.972)" fill="#1379ff"/>
    <path id="Path_1603" data-name="Path 1603" d="M1032.146,611.459a5.085,5.085,0,0,0-4.871-5.3c-3.625-.174-7.314-.237-11.085-.237h-1.176c-3.765,0-7.467.063-11.085.237a5.087,5.087,0,0,0-4.829,5.316c-.167,2.331-.237,4.655-.23,6.959s.063,4.655.223,6.959a5.1,5.1,0,0,0,4.829,5.33c3.8.174,7.7.25,11.67.25s7.863-.07,11.677-.25a5.129,5.129,0,0,0,4.871-5.33c.153-2.331.23-4.655.223-6.994s-.063-4.648-.216-6.959Zm-19.714,13.409V612.023l9.478,6.416Z" transform="translate(-339.806 -218.388)" fill="#1379ff"/>
    <path id="Path_1604" data-name="Path 1604" d="M543.555,260a14.613,14.613,0,0,0-5.873,28.051,13.027,13.027,0,0,1,.25-3.361c.285-1.19,1.886-7.982,1.886-7.982a5.567,5.567,0,0,1-.473-2.31c0-2.171,1.26-3.793,2.825-3.793a1.961,1.961,0,0,1,1.976,2.2c0,1.336-.856,3.34-1.294,5.191a2.262,2.262,0,0,0,2.31,2.818c2.784,0,4.641-3.563,4.641-7.787,0-3.208-2.164-5.6-6.089-5.6a6.959,6.959,0,0,0-7.209,7.007,4.211,4.211,0,0,0,.967,2.874.7.7,0,0,1,.209.814c-.07.271-.23.919-.3,1.176a.508.508,0,0,1-.738.369c-2.046-.835-3-3.076-3-5.567,0-4.175,3.479-9.144,10.438-9.144,5.567,0,9.269,4.043,9.269,8.385,0,5.741-3.194,10.035-7.905,10.035a4.175,4.175,0,0,1-3.57-1.823s-.856,3.368-1.037,4.022a12.065,12.065,0,0,1-1.468,3.138,14.828,14.828,0,0,0,4.175.6,14.655,14.655,0,1,0,0-29.31Z" transform="translate(-196.849 -113.185)" fill="#1379ff"/>
    <path id="Path_1605" data-name="Path 1605" d="M727.123,753.02c-.564-2.387-.9-4.474-.9-4.474A9.27,9.27,0,0,0,725.181,744v-.654h0v-4.8a15.878,15.878,0,0,1,1.211-2.512c.863-1.5,0-7.028,0-7.028s-3.2-7.787-2.429-12.728-6.569-21.941-6.569-21.941a21.674,21.674,0,0,1,.7-4.871,3.517,3.517,0,0,0,.09-1.016.754.754,0,0,0,0-.125v.042c-.111-3.257-2.686-9.366-2.686-9.366l.348-11.635a34.267,34.267,0,0,0-1.037-16.082c-.939-3.215-1.538-5.783-1.921-7.773-.042-.223-.083-.438-.118-.647,5.518-.842,9.742-1.545,9.742-1.545s-3.2-13.4-5.365-15.741-3.89-9.707-3.89-9.707-1.127-9.464.7-12.227,2.088-7.536,2.088-7.536,4.175-3.013,4.669-4.356a22.061,22.061,0,0,0,1.392-5.943c0-1.594-.522-3.013-.348-3.855s-1.211-4.015-.515-5.525a4.045,4.045,0,0,0,.271-1.454.091.091,0,0,0,0-.042h0a20.678,20.678,0,0,0-.369-3.932,11.134,11.134,0,0,0-4.106-2.2l-.09-.355-.237-.939a3.187,3.187,0,0,0-.411-.244v-1.74l.647-3.062c1.28-5.31-5.818-6.1-5.818-6.1a3.743,3.743,0,0,0-2.011-1.768c-1.392-.5-.237,8,.431,8.545a27.679,27.679,0,0,1,2.784,4.384h0l.125.216a2.822,2.822,0,0,0-.327.341l.271,1.844.042.285a7.579,7.579,0,0,0-1.134,1.928,4.113,4.113,0,0,1,1.037,3.02,9.463,9.463,0,0,0,.431,3.681c-.077-.09-.988-1.079-1.9-.835s-3.479,1-3.479,1-1.907.334-1.733.752-1.294,2.262-1.294,2.262l-5.115-4.871c-.056-.146-.1-.292-.153-.438a11.694,11.694,0,0,1-.438-2.088,11.367,11.367,0,0,0,1.628-.522,3.528,3.528,0,0,0,1.392-.9,5.524,5.524,0,0,0,.821-2.206,30.622,30.622,0,0,1,1.9-4.231,13.764,13.764,0,0,0,.988-7.55,5.024,5.024,0,0,0-.779-2.227c-.835-1.148-2.352-1.615-3.479-2.533s-1.809-2.31-3.1-3a6.1,6.1,0,0,0-3.883-.334,20.752,20.752,0,0,0-7.244,2.63,3.725,3.725,0,0,1-2.429.8,3.278,3.278,0,0,1-1.747-1.28.341.341,0,0,1,0-.077l-.063-.063a9.164,9.164,0,0,0-.793,3.827v.821a1.569,1.569,0,0,1,0,.181h0a1.226,1.226,0,0,1-.042.271,1.969,1.969,0,0,1-.473.7,3.082,3.082,0,0,0-.418.571.616.616,0,0,1,.07-.209,3.02,3.02,0,0,0-.536,1.607,1.6,1.6,0,0,0,.39,1.155,5.567,5.567,0,0,0,.828.7,9.744,9.744,0,0,0-.146,1.7,9.9,9.9,0,0,0,4.815,8.441l.174.438a12.171,12.171,0,0,1,.926,5.567.939.939,0,0,1-.063.411l-.181.209h0s-8.448.083-10.438-1.719-5.017,4.4-5.017,4.4-3.027.591-3.632,0-4.175-.083-4.175-.083a7.654,7.654,0,0,0-5.275-1.921,15.5,15.5,0,0,0-3.876-2.157h0l-.1-.035h0a4.329,4.329,0,0,0-1.907-.237s-4.175-3.438-5.358-5.275-6.959-8.678-7.007-8.712v-.327l-.07-1a3.894,3.894,0,0,1-.515.049,1.21,1.21,0,0,0-.118-.348,18.786,18.786,0,0,0-1.225-2.783s0-1.253.369-1.566-.153-4.92-.153-4.92-3.744-8.747-7.091-2.22c0,0-6.339,4.224-1.023,9.151,0,0,2.088,1.023,2.422,1.837.2.529.919,2.011,1.392,2.992l.216.438-.063.049.084.821v.32c-1,.564-1.677,1.127-1.517,1.559a9.16,9.16,0,0,1,.605,2.262s7.355,9.206,8.309,13.145c0,0,19.721,11.719,26.207,12.561l-1.12,5.859a46.348,46.348,0,0,0-.258,4.774c.084,1.253-.779,6.959-.779,6.959s-1.127,8.351-2.088,9.54-.779,6.2-.779,6.2a41.817,41.817,0,0,1-1.294,7.112,18.072,18.072,0,0,0-.257,7.119s-3.292,7.536,4.586,2.429c0,0,3.862-.237,8.351-.39v2.289c-.056,4.314-.083,10.264.111,14.766.348,7.954,2.784,23.66,2.784,23.66v7.905a11.058,11.058,0,0,0-.223,2.262,14.654,14.654,0,0,0,2.129,7.919l.605,5.275a21.852,21.852,0,0,1,1.447,5.567,2.742,2.742,0,0,1-.063.5,3.746,3.746,0,0,0-.07.807c-.077,2.394,1.392,8.128,1.392,8.128s.09,5.776.953,6.11c.738.285-.988,3.333-1.5,4.175a1.394,1.394,0,0,1-.035-.167c-.063.111-.1.174-.1.174a4.057,4.057,0,0,0-.271,1.461,2.088,2.088,0,0,0,.96,2.032c1.642,1.009,2.526,1.844,1.134,2.178a13.786,13.786,0,0,0-1.524.32c0-.063-.056-.132-.077-.195a.932.932,0,0,0-.543.967,4.281,4.281,0,0,0,.522,1.955,20.878,20.878,0,0,0,2.338,4.273l.7-.077a3.285,3.285,0,0,1-.39.7,2.693,2.693,0,0,1-.974.863,3.116,3.116,0,0,1-1.183.411,3.3,3.3,0,0,0-2.449,1.19c-.863,1.113-1.392,2.637.3,3.973l6.186,2.129s10.64,1.392,10.076-1-.9-4.474-.9-4.474a9.443,9.443,0,0,0-.87-4.238,4.171,4.171,0,0,0-.376-.626l.376-.042s.779-5.275,1.816-6.263c.244-.23.3-.411.237-.55.111-.285-.16-.452-.508-.55l-.077.209a5.228,5.228,0,0,0-1.03-.111s-.348-2.784.772-3.772a1.064,1.064,0,0,0,.223-.821,4.733,4.733,0,0,0-.118-1.127l-.042.07a40.188,40.188,0,0,0-2.484-6.493s-.084-2.512.605-3.521-.083-13.646-.083-13.646.257-6.11-.522-8.956.953-6.2.953-6.2V694.6s-.042-.376-.1-.967v.063c-.174-1.621-.5-4.551-.745-5.9-.348-1.928.083-11.134.083-11.134l1.559-3.932,2.783,6.778,2.937,9.046a7.69,7.69,0,0,1,1.5,3.841c0,.1,0,.195,0,.285a4.554,4.554,0,0,0,0,.605,5.4,5.4,0,0,0,.9,3.222s.779,4.273,1.99,5.358a4.824,4.824,0,0,1,1.211,3.18s1.468,6.2,2.164,7.286c.585.919.612,3.438.605,4.175h0v.23s.2,2.213.195,4.078v.647a6.485,6.485,0,0,1-.181,1.5v-.223a15.492,15.492,0,0,0-.445,3.862c-.042,2.227.3,4.871,1.649,6.409,2.338,2.679,3.806,2.345,3.806,2.345s-1.127,3.347-2.512,4.022a.837.837,0,0,0-.146.09.387.387,0,0,0-.035-.195,1.635,1.635,0,0,0-.4,1.253,8.963,8.963,0,0,0,1.712,4.962,2.742,2.742,0,0,0,1.169.7l-.216.132a4.855,4.855,0,0,1-.48.23,2.268,2.268,0,0,1-.7.181,3.3,3.3,0,0,0-2.45,1.19c-.863,1.113-1.392,2.637.3,3.973l6.186,2.129S727.659,755.442,727.123,753.02Z" transform="translate(-227.164 -200.844)" fill="url(#linear-gradient)"/>
    <path id="Path_1606" data-name="Path 1606" d="M708.741,843.07l-5.991-2.129c-1.649-1.336-1.12-2.86-.285-3.974a3.152,3.152,0,0,1,2.366-1.19,2.931,2.931,0,0,0,1.148-.411,2.715,2.715,0,0,0,.946-.863,4.4,4.4,0,0,0,.7-2.317s6.576-1.921,8.351,0a4.915,4.915,0,0,1,.8,1.169,9.743,9.743,0,0,1,.835,4.238s.334,2.088.877,4.474S708.741,843.07,708.741,843.07Z" transform="translate(-249.421 -286.941)" fill="#2d293d"/>
    <path id="Path_1607" data-name="Path 1607" d="M750.851,838.869l-5.984-2.129c-1.656-1.336-1.127-2.86-.292-3.966a3.145,3.145,0,0,1,2.373-1.2,2.162,2.162,0,0,0,.7-.181,3.512,3.512,0,0,0,.459-.23,3.787,3.787,0,0,0,1.635-3.18s6.569-1.928,8.35,0a4.659,4.659,0,0,1,.626.856,9.562,9.562,0,0,1,1.009,4.551s.334,2.088.877,4.474S750.851,838.869,750.851,838.869Z" transform="translate(-262.228 -285.662)" fill="#2d293d"/>
    <path id="Path_1608" data-name="Path 1608" d="M718.273,832.186a4.911,4.911,0,0,1,.8,1.169h0L709.22,834.5a4.406,4.406,0,0,0,.7-2.317S716.478,830.266,718.273,832.186Z" transform="translate(-251.716 -286.94)" opacity="0.1"/>
    <path id="Path_1609" data-name="Path 1609" d="M760.4,828.8v1.844c-1.531,2.526-8.942,1.976-11.092.7a3.521,3.521,0,0,0,.459-.23,3.787,3.787,0,0,0,1.635-3.18s6.569-1.928,8.35,0A4.656,4.656,0,0,1,760.4,828.8Z" transform="translate(-263.909 -285.644)" opacity="0.1"/>
    <path id="Path_1610" data-name="Path 1610" d="M745.064,775.36a16.438,16.438,0,0,0-1.176,2.512v6.618c-1.67,2.784-10.382,1.844-11.552.334s-2.429-5.442-1.093-6.11,2.429-4.022,2.429-4.022-1.392.334-3.681-2.345-1.587-8.622-1.169-10.048,0-6.193,0-6.193.083-3.347-.585-4.44-2.088-7.286-2.088-7.286a4.945,4.945,0,0,0-1.169-3.18c-1.169-1.093-1.928-5.358-1.928-5.358a5.491,5.491,0,0,1-.835-3.6c.25-2.088-1.427-4.356-1.427-4.356l-2.846-9.046-2.679-6.785-1.5,3.932s-.424,9.213-.083,11.134.835,7.028.835,7.028-1.677,3.354-.919,6.2.5,8.956.5,8.956.752,12.644.083,13.653-.585,3.479-.585,3.479,3.431,7.369,2.338,8.35-.752,3.772-.752,3.772,2.345,0,1.343,1-1.761,6.263-1.761,6.263l-10.139,1.281a21.431,21.431,0,0,1-2.269-4.273c-1.336-3.1.25-2.784,1.6-3.1s.494-1.169-1.1-2.178-.7-3.264-.7-3.264,2.429-4.106,1.594-4.44-.926-6.11-.926-6.11-1.67-6.868-1.253-8.705-1.343-6.263-1.343-6.263l-.585-5.275a14.5,14.5,0,0,1-1.809-9.979v-8.149s-2.345-15.741-2.686-23.66c-.209-5.094-.153-12.046-.083-16.388.042-2.429.083-4.043.083-4.043l36.186-3.765a29.979,29.979,0,0,0,.661,5.372c.369,1.983.946,4.558,1.851,7.773a35.35,35.35,0,0,1,1.009,16.075l-.334,11.635s3.18,7.787,2.512,10.438a22.1,22.1,0,0,0-.7,4.871s7.119,17,6.367,21.941,2.352,12.693,2.352,12.693S745.9,773.885,745.064,775.36Z" transform="translate(-247.395 -240.163)" fill="#464353"/>
    <path id="Path_1611" data-name="Path 1611" d="M737.22,754.8,748.2,753.33S741.994,759.69,737.22,754.8Z" transform="translate(-260.232 -263.218)" opacity="0.05"/>
    <path id="Path_1612" data-name="Path 1612" d="M749.874,737.87s.383,3.89-2,5.358C747.87,743.228,752.136,742.56,749.874,737.87Z" transform="translate(-263.471 -258.517)" opacity="0.1"/>
    <path id="Path_1613" data-name="Path 1613" d="M744.105,720.06s-9.2,7.578-12.526,6.959S744.105,720.06,744.105,720.06Z" transform="translate(-258.377 -253.1)" opacity="0.1"/>
    <path id="Path_1614" data-name="Path 1614" d="M714.453,760.55s-6.959,1.594-7.2,4.4S714.453,760.55,714.453,760.55Z" transform="translate(-251.118 -265.414)" opacity="0.1"/>
    <path id="Path_1615" data-name="Path 1615" d="M716.5,810.72s-9.875,1.844-7.07,3.1a47.872,47.872,0,0,0,7.411,2.255S720.022,816.245,716.5,810.72Z" transform="translate(-251.628 -280.672)" opacity="0.05"/>
    <g id="Group_1543" data-name="Group 1543" transform="translate(447.578 440.809)" opacity="0.05">
      <path id="Path_1616" data-name="Path 1616" d="M706.227,817.374a1.955,1.955,0,0,1-.9-1.434l-.1.181s-.926,2.255.7,3.264c.181.111.355.23.515.341.292-.056.612-.1.912-.174C708.67,819.245,707.821,818.4,706.227,817.374Z" transform="translate(-697.999 -723.068)"/>
      <path id="Path_1617" data-name="Path 1617" d="M724.864,816.326c.271-.25.258-.9.1-1.726a4.67,4.67,0,0,0-.564,2.429A1.859,1.859,0,0,1,724.864,816.326Z" transform="translate(-703.909 -722.661)"/>
      <path id="Path_1618" data-name="Path 1618" d="M722.576,757.22a11.522,11.522,0,0,0-.7,3.076,12.161,12.161,0,0,1,.765-2.088A6.217,6.217,0,0,0,722.576,757.22Z" transform="translate(-703.144 -705.21)"/>
      <path id="Path_1619" data-name="Path 1619" d="M755.311,750.5a3.982,3.982,0,0,0,.09-.919c-.125.626-.209,1.211-.271,1.719C755.186,751.034,755.241,750.77,755.311,750.5Z" transform="translate(-713.256 -702.887)"/>
      <path id="Path_1620" data-name="Path 1620" d="M722.44,799.188a5.267,5.267,0,0,0,.25-1.858,6.133,6.133,0,0,0-.48,2.345,2.257,2.257,0,0,1,.23-.487Z" transform="translate(-703.245 -717.409)"/>
      <path id="Path_1621" data-name="Path 1621" d="M719.234,822.68a33.5,33.5,0,0,0-1.148,5.143L707.96,829a20.973,20.973,0,0,1-2.269-4.273,7.447,7.447,0,0,1-.285-.738c-.605.278-.849.9-.049,2.784a20.73,20.73,0,0,0,2.269,4.266l10.118-1.176s.759-5.275,1.761-6.263C720,823.063,719.686,822.812,719.234,822.68Z" transform="translate(-697.965 -725.118)"/>
      <path id="Path_1622" data-name="Path 1622" d="M702.85,765s.083,5.783.919,6.117h0c.424-.953.7-1.858.327-2.011-.835-.334-.919-6.11-.919-6.11s-1.677-6.868-1.253-8.712-1.343-6.263-1.343-6.263L700,742.75a14.53,14.53,0,0,1-1.844-9.965V724.65s-2.345-15.741-2.679-23.695c-.216-5.094-.153-12.046-.083-16.388V682.48H695.1s-.042,1.607-.083,4.043c-.07,4.335-.132,11.294.083,16.388.334,7.954,2.679,23.695,2.679,23.695v8.121a14.482,14.482,0,0,0,1.886,10.048l.585,5.275s1.761,4.433,1.336,6.263S702.85,765,702.85,765Z" transform="translate(-694.956 -682.48)"/>
      <path id="Path_1623" data-name="Path 1623" d="M748.256,826.77a9.741,9.741,0,0,1-1.6-3.98c-1.037.932.153,4.558,1.266,5.991s9.881,2.429,11.558-.341v-1.594C757.212,829.095,749.37,828.2,748.256,826.77Z" transform="translate(-710.558 -725.152)"/>
      <path id="Path_1624" data-name="Path 1624" d="M766.909,814.877a16.741,16.741,0,0,0-1.169,2.512v1.176c.188-.431.459-1,.835-1.677a5.073,5.073,0,0,0,.369-2.088Z" transform="translate(-716.483 -722.722)"/>
      <path id="Path_1625" data-name="Path 1625" d="M747.776,811.4a16.109,16.109,0,0,0,.828-1.99s-1.392.334-3.688-2.345c-1.642-1.948-1.733-5.63-1.5-8.037-.418,1.427-1.093,7.369,1.169,10.048C746.064,810.839,747.17,811.291,747.776,811.4Z" transform="translate(-709.562 -717.926)"/>
      <path id="Path_1626" data-name="Path 1626" d="M737.137,770.018a45.99,45.99,0,0,1,.167,4.962c.056-.327.118-.591.167-.779.424-1.392,0-6.193,0-6.193s.083-3.354-.585-4.44-2.088-7.286-2.088-7.286a4.945,4.945,0,0,0-1.169-3.18c-1.169-1.093-1.928-5.358-1.928-5.358a5.491,5.491,0,0,1-.842-3.6c.257-2.088-1.392-4.356-1.392-4.356l-2.846-9.046L723.909,724l-1.51,3.932s0,.494-.049,1.273l1.225-3.194,2.679,6.778,2.846,9.046s1.67,2.262,1.392,4.349a5.505,5.505,0,0,0,.87,3.563s.752,4.266,1.921,5.358a4.97,4.97,0,0,1,1.176,3.18s1.392,6.193,2.088,7.286S737.137,770.018,737.137,770.018Z" transform="translate(-703.287 -695.107)"/>
    </g>
    <path id="Path_1627" data-name="Path 1627" d="M750.1,565.331l-.626,3.062.035,1.392v1l-3.479.362-.39-.7h0a29.617,29.617,0,0,0-2.714-4.384c-.647-.543-1.8-9.046-.417-8.538a3.646,3.646,0,0,1,1.948,1.761S751.337,560.015,750.1,565.331Z" transform="translate(-261.642 -203.664)" fill="#ffcdd3"/>
    <path id="Path_1628" data-name="Path 1628" d="M751.2,575.936l-3.479.362-.39-.7h0a3.076,3.076,0,0,1,3.855-.633Z" transform="translate(-263.307 -208.848)" opacity="0.1"/>
    <path id="Path_1629" data-name="Path 1629" d="M751.982,577.725l-4.6,1.072-.1-.7-.264-1.844a3.166,3.166,0,0,1,4.461-.612l.23.939Z" transform="translate(-263.212 -208.981)" fill="#dce6f2"/>
    <path id="Path_1630" data-name="Path 1630" d="M642.035,562.812l-4.913,2.644-.445-.932c-.473-.981-1.169-2.456-1.392-2.985-.292-.814-2.345-1.844-2.345-1.844-5.149-4.92.981-9.144.981-9.144,3.25-6.534,6.868,2.213,6.868,2.213s.5,4.614.146,4.92-.355,1.573-.355,1.573a19.132,19.132,0,0,1,1.19,2.784C641.958,562.527,642.035,562.812,642.035,562.812Z" transform="translate(-227.892 -200.811)" fill="#ffcdd3"/>
    <path id="Path_1631" data-name="Path 1631" d="M644.568,568.891l-4.913,2.644-.445-.932c.7-.578,3.152-2.575,3.96-2.484a5.756,5.756,0,0,0,1.169,0C644.492,568.606,644.568,568.891,644.568,568.891Z" transform="translate(-230.425 -206.89)" opacity="0.1"/>
    <path id="Path_1632" data-name="Path 1632" d="M645.133,570.526l-5.525,2.721-.111-1.19-.077-.814s3.2-2.749,4.175-2.644a5.134,5.134,0,0,0,1.448,0l.063,1Z" transform="translate(-230.489 -207.036)" fill="#dce6f2"/>
    <path id="Path_1633" data-name="Path 1633" d="M725.641,589.767s-24.1,2.721-19.6,1.26c3.138-1.023,4.384-3.013,4.648-5.226a12.727,12.727,0,0,0-.9-5.567,24.191,24.191,0,0,0-2.157-4.356s18.42-10.132,14.739-.919a14.447,14.447,0,0,0-1.044,4.363,12.3,12.3,0,0,0,.466,4.412A13.159,13.159,0,0,0,725.641,589.767Z" transform="translate(-250.58 -207.795)" fill="#ffcdd3"/>
    <path id="Path_1634" data-name="Path 1634" d="M723.319,574.952a14.446,14.446,0,0,0-1.044,4.363c-1.74,1.454-3.639,1.392-6.082,1.392-1.879,0-3.96.459-5.456-.445a24.192,24.192,0,0,0-2.157-4.356S727,565.739,723.319,574.952Z" transform="translate(-251.522 -207.795)" opacity="0.1"/>
    <circle id="Ellipse_104" data-name="Ellipse 104" cx="9.965" cy="9.965" r="9.965" transform="translate(454.379 353.595)" fill="#ffcdd3"/>
    <path id="Path_1635" data-name="Path 1635" d="M725.641,594.837s-24.1,2.721-19.6,1.26c3.138-1.023,4.384-3.013,4.648-5.226,1.2-1.3,3.6-2.241,5.156-2.735a7.189,7.189,0,0,1,4.363-.07,5.816,5.816,0,0,1,1.587.7A13.159,13.159,0,0,0,725.641,594.837Z" transform="translate(-250.58 -212.865)" opacity="0.1"/>
    <path id="Path_1636" data-name="Path 1636" d="M752.1,578.35l-4.6,1.072-.1-.7a4.064,4.064,0,0,1,4.426-1.517Z" transform="translate(-263.328 -209.607)" opacity="0.1"/>
    <path id="Path_1637" data-name="Path 1637" d="M645.167,570.962l-5.525,2.721-.111-1.19a40.652,40.652,0,0,1,5.567-2.463Z" transform="translate(-230.522 -207.473)" opacity="0.1"/>
    <path id="Path_1638" data-name="Path 1638" d="M732.016,682.842c-9.332,1.468-22.616,3.389-24.724,2.749-1.747-.536-7.328-.48-12.192-.313.042-2.429.083-4.043.083-4.043l36.186-3.765a29.98,29.98,0,0,0,.647,5.372Z" transform="translate(-247.422 -240.148)" opacity="0.1"/>
    <path id="Path_1639" data-name="Path 1639" d="M723.783,648.075s-30.73,5.275-34.028,4.266-20.229.09-20.229.09c-7.62,5.1-4.433-2.429-4.433-2.429a18.159,18.159,0,0,1,.25-7.119,43.6,43.6,0,0,0,1.253-7.119s-.167-5.024.752-6.193,2.011-9.547,2.011-9.547.842-5.692.758-6.959.251-4.767.251-4.767l1.086-5.866c-6.263-.835-25.372-12.561-25.372-12.561-.919-3.932-8.037-13.145-8.037-13.145a9.691,9.691,0,0,0-.584-2.262c-.5-1.336,7.035-4.015,7.035-4.015s5.609,6.868,6.778,8.705,5.191,5.275,5.191,5.275a4.058,4.058,0,0,1,1.844.244h.1a14.85,14.85,0,0,1,3.744,2.15,7.258,7.258,0,0,1,5.108,1.928s3.438-.5,4.022.083,3.479,0,3.479,0,2.937-6.193,4.871-4.4,10.1,1.719,10.1,1.719c1.093-1.447,3.737-2.484,5.4-3.02a7.189,7.189,0,0,1,4.363-.07,5.4,5.4,0,0,1,1.726.835l4.955,4.871s1.392-1.844,1.26-2.262,1.677-.752,1.677-.752,2.429-.752,3.347-1.009,1.768.752,1.837.835a9.8,9.8,0,0,1-.417-3.681,4.176,4.176,0,0,0-1-3.013c2.957-7.154,9.575-1.1,9.575-1.1s.751,3.932.083,5.442.7,4.69.5,5.525.334,2.262.334,3.848a22.889,22.889,0,0,1-1.336,5.95c-.508,1.336-4.523,4.349-4.523,4.349s-.25,4.774-2.011,7.536-.7,12.227-.7,12.227,1.67,7.369,3.765,9.742S723.783,648.075,723.783,648.075Z" transform="translate(-229.885 -207.6)" fill="#3f3d56"/>
    <path id="Path_1640" data-name="Path 1640" d="M695.319,600.626s-.919-2.784-1.761-3.02a19.82,19.82,0,0,1-2.429-1.086l.543-1.03s3.145.863,3.646,1.781S695.319,600.626,695.319,600.626Z" transform="translate(-246.215 -215.216)" opacity="0.1"/>
    <path id="Path_1641" data-name="Path 1641" d="M669.673,593.125c-.167.842-7.613,1.594-7.613,1.594l3.765-3.779h0l.1.035h0a14.85,14.85,0,0,1,3.751,2.15Z" transform="translate(-237.374 -213.832)" opacity="0.1"/>
    <circle id="Ellipse_105" data-name="Ellipse 105" cx="0.668" cy="0.668" r="0.668" transform="translate(410.045 367.136)" fill="#575988"/>
    <circle id="Ellipse_106" data-name="Ellipse 106" cx="0.668" cy="0.668" r="0.668" transform="translate(410.901 368.479)" fill="#575988"/>
    <circle id="Ellipse_107" data-name="Ellipse 107" cx="0.668" cy="0.668" r="0.668" transform="translate(411.743 369.711)" fill="#575988"/>
    <circle id="Ellipse_108" data-name="Ellipse 108" cx="0.668" cy="0.668" r="0.668" transform="translate(412.62 371.054)" fill="#575988"/>
    <circle id="Ellipse_109" data-name="Ellipse 109" cx="0.543" cy="0.543" r="0.543" transform="translate(491.671 371.103)" fill="#575988"/>
    <circle id="Ellipse_110" data-name="Ellipse 110" cx="0.543" cy="0.543" r="0.543" transform="translate(491.755 372.342)" fill="#575988"/>
    <circle id="Ellipse_111" data-name="Ellipse 111" cx="0.543" cy="0.543" r="0.543" transform="translate(491.824 373.573)" fill="#575988"/>
    <path id="Path_1642" data-name="Path 1642" d="M697.21,635.47c-.077-.1,18.789,23.736,33.451,9.965C730.661,645.435,707.5,648.573,697.21,635.47Z" transform="translate(-248.064 -227.374)" opacity="0.1"/>
    <path id="Path_1643" data-name="Path 1643" d="M681.63,653.28s11.294.306,12.477,3.556v3.382a2.164,2.164,0,0,1-2.088,0c-1.141-.612-7.968-4.085-10.375-2.415Z" transform="translate(-243.326 -232.791)" opacity="0.1"/>
    <path id="Path_1644" data-name="Path 1644" d="M681.93,653.28s10.8.292,11.934,3.389V659.9a2.088,2.088,0,0,1-2.011,0c-1.093-.591-7.655-3.9-9.923-2.3Z" transform="translate(-243.417 -232.791)" fill="#3f3d56"/>
    <path id="Path_1645" data-name="Path 1645" d="M690.49,618a36.374,36.374,0,0,0,4.377,7.508,29.33,29.33,0,0,0,6.861,6.625S690.678,619.58,690.49,618Z" transform="translate(-246.02 -222.061)" opacity="0.1"/>
    <path id="Path_1646" data-name="Path 1646" d="M685.18,599.18s1.886,8.135,6.736,10.9Z" transform="translate(-244.405 -216.338)" opacity="0.1"/>
    <path id="Path_1647" data-name="Path 1647" d="M680.926,600.359c-.049-.153-1.677,6.43,6.263,10.076C687.189,610.435,683.835,609.294,680.926,600.359Z" transform="translate(-243.06 -216.695)" opacity="0.1"/>
    <path id="Path_1648" data-name="Path 1648" d="M751.9,592.518a58.284,58.284,0,0,1,5.01,3.765S754.286,592.351,751.9,592.518Z" transform="translate(-264.695 -214.31)" opacity="0.1"/>
    <path id="Path_1649" data-name="Path 1649" d="M711.56,574.61a2.122,2.122,0,0,0,.772,1.35,2.177,2.177,0,0,0,.939.209c3.041.188,6.2.32,9.046-.849a3.368,3.368,0,0,0,1.392-.912,5.42,5.42,0,0,0,.738-2.192,34.169,34.169,0,0,1,1.844-4.231,14.217,14.217,0,0,0,.981-7.6,5.086,5.086,0,0,0-.758-2.227c-.807-1.148-2.276-1.614-3.34-2.533s-1.754-2.317-2.992-3.006a5.818,5.818,0,0,0-3.758-.334,19.855,19.855,0,0,0-7.014,2.637,3.473,3.473,0,0,1-2.345.8,3.222,3.222,0,0,1-1.726-1.322,9.269,9.269,0,0,0-.745,4.335,1.283,1.283,0,0,1-.466,1.35c-.752.87-1.218,2.248-.48,3.124.327.383.821.591,1.134.981.564.7.369,1.7.355,2.6a1.392,1.392,0,0,0,.223.884,1.3,1.3,0,0,0,1.232.292,3.368,3.368,0,0,1,1.308-.125,2.206,2.206,0,0,1,1.141.877A15.909,15.909,0,0,1,711.56,574.61Z" transform="translate(-249.909 -202.025)" fill="#2d293d"/>
    <g id="Group_1544" data-name="Group 1544" transform="translate(453.298 358.41)" opacity="0.1">
      <path id="Path_1650" data-name="Path 1650" d="M723.93,577.278a3.292,3.292,0,0,1-1.392.9c-2.784,1.176-5.971,1.037-9,.849a2.045,2.045,0,0,1-.939-.209,2.087,2.087,0,0,1-.779-1.343,15.531,15.531,0,0,0-2.54-5.894,2.172,2.172,0,0,0-1.141-.877,3.369,3.369,0,0,0-1.308.125,1.294,1.294,0,0,1-1.232-.292,1.35,1.35,0,0,1-.216-.884c0-.9.2-1.907-.362-2.6-.313-.39-.807-.6-1.134-.981a1.962,1.962,0,0,1-.188-2,2.292,2.292,0,0,0-.146,2.672c.327.383.821.591,1.134.981.564.7.369,1.7.355,2.6a1.392,1.392,0,0,0,.223.884,1.288,1.288,0,0,0,1.232.292,3.367,3.367,0,0,1,1.308-.125,2.206,2.206,0,0,1,1.141.877,15.8,15.8,0,0,1,2.54,5.894,2.123,2.123,0,0,0,.772,1.35,2.176,2.176,0,0,0,.939.209c3.041.188,6.2.32,9.046-.849a3.416,3.416,0,0,0,1.392-.912,2.649,2.649,0,0,0,.431-.807A.5.5,0,0,1,723.93,577.278Z" transform="translate(-703.176 -564.07)"/>
    </g>
    <path id="Path_1651" data-name="Path 1651" d="M712.62,593.023s12.449,1.649,13.57-.223" transform="translate(-252.75 -214.397)" opacity="0.1"/>
    <path id="Path_1652" data-name="Path 1652" d="M747.4,585.72s6.91,0,8.434,2.6" transform="translate(-263.328 -212.244)" opacity="0.1"/>
  </g>
</svg>
