<svg xmlns="http://www.w3.org/2000/svg" width="681.319" height="426.899" viewBox="0 0 681.319 426.899">
  <g id="illustration" transform="translate(2.679 0)">
    <path id="Path_1653" data-name="Path 1653" d="M824.364,715.131H250.258a19.25,19.25,0,0,1-19.25-19.25h0q312.17-36.28,612.606,0h0A19.25,19.25,0,0,1,824.364,715.131Z" transform="translate(-177.248 -288.232)" fill="#ccc"/>
    <path id="Path_1654" data-name="Path 1654" d="M843.611,582.674l-612.6-1.133,71-119.464.34-.566V198.227a24.333,24.333,0,0,1,24.336-24.334H744.544a24.333,24.333,0,0,1,24.334,24.336V463.323Z" transform="translate(-177.248 -173.893)" fill="#e6e6e6"/>
    <path id="Path_1655" data-name="Path 1655" d="M351.721,195.864a7.935,7.935,0,0,0-7.926,7.926v240.06a7.936,7.936,0,0,0,7.926,7.926h422.37a7.936,7.936,0,0,0,7.927-7.926V203.79a7.936,7.936,0,0,0-7.927-7.926Z" transform="translate(-202.843 -178.879)" fill="#fff"/>
    <path id="Path_1656" data-name="Path 1656" d="M350.22,567.913a3.406,3.406,0,0,0-3.086,1.977l-21.877,47.559a3.4,3.4,0,0,0,3.086,4.817H788.4a3.4,3.4,0,0,0,3.038-4.916l-23.78-47.559a3.38,3.38,0,0,0-3.038-1.878Z" transform="translate(-198.565 -263.309)" fill="#ccc"/>
    <circle id="Ellipse_112" data-name="Ellipse 112" cx="5.096" cy="5.096" r="5.096" transform="translate(353.27 2.831)" fill="#fff"/>
    <path id="Path_1657" data-name="Path 1657" d="M563.926,649.94a3.4,3.4,0,0,0-3.28,2.514l-5.488,20.382a3.4,3.4,0,0,0,3.28,4.281H662.8a3.4,3.4,0,0,0,3.209-4.508l-7.055-20.383a3.4,3.4,0,0,0-3.21-2.286Z" transform="translate(-250.781 -281.923)" fill="#ccc"/>
    <path id="Path_1658" data-name="Path 1658" d="M629.041,366.922v4.53H162.169l.351-.567v-3.964Z" transform="translate(-37.409 -83.267)" fill="#ccc"/>
    <path id="Path_1659" data-name="Path 1659" d="M851.592,554.237a.829.829,0,0,0-.8.612l-1.336,4.963a.827.827,0,0,0,.8,1.043h25.414a.827.827,0,0,0,.782-1.1l-1.718-4.963a.828.828,0,0,0-.782-.557Z" transform="translate(-317.587 -260.205)" fill="#ccc"/>
    <path id="Path_1660" data-name="Path 1660" d="M803.592,554.237a.828.828,0,0,0-.8.612l-1.336,4.963a.827.827,0,0,0,.8,1.043h25.413a.827.827,0,0,0,.782-1.1l-1.718-4.963a.828.828,0,0,0-.782-.557Z" transform="translate(-306.694 -260.205)" fill="#ccc"/>
    <path id="Path_1661" data-name="Path 1661" d="M649.18,516.879h1.992l-3.984-266.235H645.2l.079,5.311H600.633l.079-5.311h-1.992l-3.984,266.235h1.992l.258-17.262h51.934ZM646.309,325H599.6l.487-32.532h45.735Zm.03,1.992.487,32.532H599.084L599.57,327Zm.517,34.524.487,32.532H598.567l.487-32.532Zm.517,34.524.487,32.532H598.05l.487-32.532Zm.517,34.524.487,32.533H597.534l.487-32.533Zm-2.582-172.621.487,32.532H600.117l.487-32.532ZM597.018,497.625l.487-32.532h50.9l.487,32.532Z" transform="translate(-259.79 -191.31)" fill="#3f3d56"/>
    <circle id="Ellipse_113" data-name="Ellipse 113" cx="32.478" cy="32.478" r="32.478" transform="translate(320.819 86.078)" fill="#2f2e41"/>
    <rect id="Rectangle_123" data-name="Rectangle 123" width="9.867" height="17.678" transform="translate(362.694 142.761) rotate(-10.261)" fill="#2f2e41"/>
    <rect id="Rectangle_124" data-name="Rectangle 124" width="9.867" height="17.678" transform="translate(343.276 146.276) rotate(-10.261)" fill="#2f2e41"/>
    <ellipse id="Ellipse_114" data-name="Ellipse 114" cx="8.222" cy="3.083" rx="8.222" ry="3.083" transform="matrix(0.763, -0.646, 0.646, 0.763, 341.319, 167.939)" fill="#2f2e41"/>
    <ellipse id="Ellipse_115" data-name="Ellipse 115" cx="8.222" cy="3.083" rx="8.222" ry="3.083" transform="matrix(0.763, -0.646, 0.646, 0.763, 360.332, 164.497)" fill="#2f2e41"/>
    <circle id="Ellipse_116" data-name="Ellipse 116" cx="11.1" cy="11.1" r="11.1" transform="translate(339.924 99.511)" fill="#fff"/>
    <circle id="Ellipse_117" data-name="Ellipse 117" cx="3.7" cy="3.7" r="3.7" transform="translate(342.762 102.932)" fill="#3f3d56"/>
    <path id="Path_1662" data-name="Path 1662" d="M637.5,274.861c.488-12.024-9.874-22.208-23.146-22.747s-24.427,8.771-24.915,20.8,8.737,14.756,22.009,15.295S637.014,286.885,637.5,274.861Z" transform="translate(-258.583 -191.639)" fill="#1379ff"/>
    <ellipse id="Ellipse_118" data-name="Ellipse 118" cx="5.098" cy="16.239" rx="5.098" ry="16.239" transform="matrix(0.223, -0.975, 0.975, 0.223, 306.34, 113.98)" fill="#2f2e41"/>
    <ellipse id="Ellipse_119" data-name="Ellipse 119" cx="5.098" cy="16.239" rx="5.098" ry="16.239" transform="matrix(0.223, -0.975, 0.975, 0.223, 370.093, 124.582)" fill="#2f2e41"/>
    <path id="Path_1663" data-name="Path 1663" d="M625.707,342.674a7.4,7.4,0,1,1-14.561,2.651l0-.014c-.728-4.022,2.381-5.445,6.4-6.173S624.978,338.653,625.707,342.674Z" transform="translate(-263.488 -211.319)" fill="#fff"/>
    <ellipse id="Ellipse_120" data-name="Ellipse 120" cx="16.647" cy="5.226" rx="16.647" ry="5.226" transform="matrix(0.357, -0.934, 0.934, 0.357, 227.588, 240.684)" fill="#2f2e41"/>
    <circle id="Ellipse_121" data-name="Ellipse 121" cx="33.294" cy="33.294" r="33.294" transform="translate(169.443 279.669) rotate(-80.783)" fill="#2f2e41"/>
    <rect id="Rectangle_125" data-name="Rectangle 125" width="10.115" height="18.122" transform="translate(192.468 278.269)" fill="#2f2e41"/>
    <rect id="Rectangle_126" data-name="Rectangle 126" width="10.115" height="18.122" transform="translate(212.698 278.269)" fill="#2f2e41"/>
    <ellipse id="Ellipse_122" data-name="Ellipse 122" cx="8.429" cy="3.161" rx="8.429" ry="3.161" transform="translate(192.468 293.442)" fill="#2f2e41"/>
    <ellipse id="Ellipse_123" data-name="Ellipse 123" cx="8.429" cy="3.161" rx="8.429" ry="3.161" transform="translate(212.698 293.021)" fill="#2f2e41"/>
    <path id="Path_1664" data-name="Path 1664" d="M388.138,451.828c-2.688-12.04,5.905-24.205,19.194-27.172s26.241,4.387,28.929,16.427-6.119,16.48-19.408,19.447S390.825,463.867,388.138,451.828Z" transform="translate(-212.794 -230.65)" fill="#1379ff"/>
    <ellipse id="Ellipse_124" data-name="Ellipse 124" cx="5.226" cy="16.647" rx="5.226" ry="16.647" transform="translate(152.86 234.28) rotate(-64.626)" fill="#2f2e41"/>
    <circle id="Ellipse_125" data-name="Ellipse 125" cx="33.294" cy="33.294" r="33.294" transform="translate(30.186 252.558)" fill="#2f2e41"/>
    <rect id="Rectangle_127" data-name="Rectangle 127" width="10.115" height="18.122" transform="translate(48.308 311.981)" fill="#2f2e41"/>
    <rect id="Rectangle_128" data-name="Rectangle 128" width="10.115" height="18.122" transform="translate(68.537 311.981)" fill="#2f2e41"/>
    <ellipse id="Ellipse_126" data-name="Ellipse 126" cx="8.429" cy="3.161" rx="8.429" ry="3.161" transform="translate(48.308 327.153)" fill="#2f2e41"/>
    <ellipse id="Ellipse_127" data-name="Ellipse 127" cx="8.429" cy="3.161" rx="8.429" ry="3.161" transform="translate(68.537 326.732)" fill="#2f2e41"/>
    <circle id="Ellipse_128" data-name="Ellipse 128" cx="11.379" cy="11.379" r="11.379" transform="translate(52.944 266.044)" fill="#fff"/>
    <circle id="Ellipse_129" data-name="Ellipse 129" cx="3.793" cy="3.793" r="3.793" transform="translate(60.53 273.63)" fill="#3f3d56"/>
    <path id="Path_1665" data-name="Path 1665" d="M201.66,495.435c-2.688-12.04,5.905-24.205,19.194-27.172s26.241,4.387,28.93,16.427-6.119,16.48-19.408,19.447S204.347,507.474,201.66,495.435Z" transform="translate(-170.476 -240.546)" fill="#e6e6e6"/>
    <ellipse id="Ellipse_130" data-name="Ellipse 130" cx="16.647" cy="5.226" rx="16.647" ry="5.226" transform="matrix(0.357, -0.934, 0.934, 0.357, 72.049, 178.727)" fill="#2f2e41"/>
    <circle id="Ellipse_131" data-name="Ellipse 131" cx="33.294" cy="33.294" r="33.294" transform="translate(13.904 217.715) rotate(-80.783)" fill="#2f2e41"/>
    <rect id="Rectangle_129" data-name="Rectangle 129" width="10.115" height="18.122" transform="translate(36.929 216.313)" fill="#2f2e41"/>
    <rect id="Rectangle_130" data-name="Rectangle 130" width="10.115" height="18.122" transform="translate(57.158 216.313)" fill="#2f2e41"/>
    <ellipse id="Ellipse_132" data-name="Ellipse 132" cx="8.429" cy="3.161" rx="8.429" ry="3.161" transform="translate(36.929 231.486)" fill="#2f2e41"/>
    <ellipse id="Ellipse_133" data-name="Ellipse 133" cx="8.429" cy="3.161" rx="8.429" ry="3.161" transform="translate(57.158 231.065)" fill="#2f2e41"/>
    <circle id="Ellipse_134" data-name="Ellipse 134" cx="11.379" cy="11.379" r="11.379" transform="translate(41.565 170.377)" fill="#fff"/>
    <circle id="Ellipse_135" data-name="Ellipse 135" cx="3.793" cy="3.793" r="3.793" transform="translate(49.151 177.963)" fill="#3f3d56"/>
    <path id="Path_1666" data-name="Path 1666" d="M186.941,371.685c-2.688-12.04,5.905-24.205,19.194-27.172s26.241,4.387,28.929,16.427-6.119,16.48-19.408,19.447S189.628,383.724,186.941,371.685Z" transform="translate(-167.135 -212.463)" fill="#1379ff"/>
    <ellipse id="Ellipse_136" data-name="Ellipse 136" cx="5.226" cy="16.647" rx="5.226" ry="16.647" transform="translate(-2.679 172.324) rotate(-64.626)" fill="#2f2e41"/>
    <path id="Path_1667" data-name="Path 1667" d="M207.707,434.256c0,3.259,8.39,9.693,17.7,9.693s18.04-9.174,18.04-12.433-8.729.632-18.04.632S207.707,431,207.707,434.256Z" transform="translate(-171.96 -232.061)" fill="#fff"/>
    <path id="Path_1668" data-name="Path 1668" d="M270.523,255.461a2.322,2.322,0,0,0-2.319,2.319v95.86a2.322,2.322,0,0,0,2.319,2.319h221.87a2.322,2.322,0,0,0,2.319-2.319V257.78a2.322,2.322,0,0,0-2.319-2.319Z" transform="translate(-185.689 -192.403)" fill="#1379ff"/>
    <circle id="Ellipse_137" data-name="Ellipse 137" cx="22.513" cy="22.513" r="22.513" transform="translate(122.23 90.795)" fill="#fff"/>
    <path id="Path_40" data-name="Path 40" d="M413.65,316.587a2.632,2.632,0,1,0,0,5.265h71.08a2.633,2.633,0,0,0,.086-5.264H413.65Z" transform="translate(-218.098 -206.275)" fill="#fff"/>
    <path id="Path_40-2" data-name="Path 40" d="M413.65,296.86a2.632,2.632,0,1,0,0,5.265h35.5a2.633,2.633,0,1,0,.086-5.264H413.65Z" transform="translate(-218.098 -201.798)" fill="#fff"/>
    <path id="Path_40-3" data-name="Path 40" d="M413.65,337.253a2.632,2.632,0,1,0,0,5.265h71.08a2.633,2.633,0,1,0,.086-5.264H413.65Z" transform="translate(-218.098 -210.964)" fill="#fff"/>
    <ellipse id="Ellipse_138" data-name="Ellipse 138" cx="5.226" cy="16.647" rx="5.226" ry="16.647" transform="matrix(0.934, -0.357, 0.357, 0.934, 523.994, 274.367)" fill="#2f2e41"/>
    <circle id="Ellipse_139" data-name="Ellipse 139" cx="33.294" cy="33.294" r="33.294" transform="translate(520.441 292.624) rotate(-9.217)" fill="#2f2e41"/>
    <path id="Path_1669" data-name="Path 1669" d="M740.066,447.932H729.952l1.979,21.7,8.153-2.215Z" transform="translate(-166.258 -101.65)" fill="#2f2e41"/>
    <path id="Path_1670" data-name="Path 1670" d="M711.543,448.005H701.428l1.979,21.7,7.785-2.271Z" transform="translate(-159.785 -101.667)" fill="#2f2e41"/>
    <ellipse id="Ellipse_140" data-name="Ellipse 140" cx="8.429" cy="3.161" rx="8.429" ry="3.161" transform="translate(534.47 363.37) rotate(-4.182)" fill="#2f2e41"/>
    <circle id="Ellipse_141" data-name="Ellipse 141" cx="11.379" cy="11.379" r="11.379" transform="translate(546.415 300.344)" fill="#fff"/>
    <circle id="Ellipse_142" data-name="Ellipse 142" cx="3.793" cy="3.793" r="3.793" transform="translate(554.001 307.93)" fill="#3f3d56"/>
    <ellipse id="Ellipse_143" data-name="Ellipse 143" cx="16.647" cy="5.226" rx="16.647" ry="5.226" transform="translate(579.72 307.26) rotate(-53.55)" fill="#2f2e41"/>
    <path id="Path_1671" data-name="Path 1671" d="M863.077,607.886c0-2.686,6.915-7.989,14.588-7.989s14.868,7.561,14.868,10.247-7.195-.521-14.868-.521S863.077,610.572,863.077,607.886Z" transform="translate(-320.685 -270.567)" fill="#fff"/>
    <path id="Path_1672" data-name="Path 1672" d="M949.991,498.473l-182.25-25.265a5.418,5.418,0,0,1-4.617-6.1l20.488-147.789a5.418,5.418,0,0,1,6.1-4.617l182.248,25.265a5.418,5.418,0,0,1,4.617,6.1L956.09,493.856a5.418,5.418,0,0,1-6.1,4.617Z" transform="translate(-297.99 -205.835)" fill="#1379ff"/>
    <path id="Path_1673" data-name="Path 1673" d="M892.989,468.021l-93.042-12.9a1.912,1.912,0,0,1-.344-.076l54.571-70.122a3.111,3.111,0,0,1,5.363.744l22.442,55.245,1.076,2.644Z" transform="translate(-306.28 -221.506)" fill="#fff"/>
    <path id="Path_1674" data-name="Path 1674" d="M750.4,310.922l-31.767-4.4,18.734-20.489,1.349-1.476.674-.738,1.075,2.644Z" transform="translate(-163.689 -64.407)" opacity="0.2"/>
    <path id="Path_1675" data-name="Path 1675" d="M963.792,484.165l-80.474-11.156,18.734-20.489,1.348-1.476,24.413-26.7a4.151,4.151,0,0,1,6.154.481,3.723,3.723,0,0,1,.242.406Z" transform="translate(-325.278 -230.468)" fill="#fff"/>
    <circle id="Ellipse_144" data-name="Ellipse 144" cx="13.915" cy="13.915" r="13.915" transform="translate(573.925 159.394)" fill="#fff"/>
    <rect id="Rectangle_131" data-name="Rectangle 131" width="17.007" height="17.007" transform="translate(494.833 120.225) rotate(7.893)" fill="#3f3d56"/>
    <path id="Path_1676" data-name="Path 1676" d="M911.6,539.8c2.688-12.04-5.905-24.205-19.194-27.172s-26.241,4.387-28.93,16.427,6.119,16.48,19.408,19.447S908.909,551.843,911.6,539.8Z" transform="translate(-320.665 -250.614)" fill="#f2f2f2"/>
    <ellipse id="Ellipse_145" data-name="Ellipse 145" cx="8.429" cy="3.161" rx="8.429" ry="3.161" transform="translate(556.651 363.317) rotate(-4.182)" fill="#2f2e41"/>
  </g>
</svg>
