<svg xmlns="http://www.w3.org/2000/svg" width="85" height="85" viewBox="0 0 85 85">
  <g id="digital-marketing" transform="translate(-32 -32)">
    <path id="Path_1682" data-name="Path 1682" d="M52.112,352H36.174A4.179,4.179,0,0,0,32,356.174v15.938a4.179,4.179,0,0,0,4.174,4.174H52.112a4.179,4.179,0,0,0,4.174-4.174V356.174A4.179,4.179,0,0,0,52.112,352Zm-7.969,19.732a7.589,7.589,0,1,1,7.589-7.589,7.589,7.589,0,0,1-7.589,7.589Zm9.107-13.661H50.214v-3.036H53.25Z" transform="translate(0 -259.286)" fill="#1379ff"/>
    <path id="Path_1683" data-name="Path 1683" d="M243.353,188.839a.37.37,0,0,0,.177-.044,1.533,1.533,0,0,1,.205-.09,2.27,2.27,0,0,0,.6-3.96,1.518,1.518,0,0,1-.605-1.213,1.537,1.537,0,0,1,.605-1.223,2.267,2.267,0,0,0,0-3.636,1.518,1.518,0,0,1-.605-1.213v-1.528a1.518,1.518,0,0,1,.605-1.213,2.27,2.27,0,0,0-.6-3.96,1.5,1.5,0,0,1-.205-.09.375.375,0,0,0-.177-.044h-7.21a1.518,1.518,0,0,1-1.518-1.518v-4.933A4.179,4.179,0,0,0,230.451,160h-1.9v9.107a1.518,1.518,0,0,1-.676,1.263L224,172.955v14.79l3.282,1.094Z" transform="translate(-155.571 -103.714)" fill="#1379ff"/>
    <path id="Path_1684" data-name="Path 1684" d="M104.7,147.911a31.956,31.956,0,0,0,27.333,1.44q-.012-.317-.012-.637a16.715,16.715,0,0,1,16.7-16.7q.32,0,.637.012a31.951,31.951,0,0,0-1.682-27.771l-2.323,2.9a1.518,1.518,0,0,1-1.185.569h-3.036a1.518,1.518,0,0,1-1.518-1.518v-6.071h-6.071a1.518,1.518,0,0,1-1.518-1.518V90.394a31.993,31.993,0,0,0-24.3.005q.012.317.012.637a16.715,16.715,0,0,1-16.7,16.7q-.32,0-.637-.012a31.954,31.954,0,0,0,1.44,27.333h5.648a7.218,7.218,0,0,1,7.21,7.21Zm-1.518-14.375a1.518,1.518,0,0,1-1.518-1.518V113.8a1.518,1.518,0,0,1,1.518-1.518h8.648l3.5-2.33v-9.813a1.518,1.518,0,0,1,1.518-1.518h3.415a7.218,7.218,0,0,1,7.21,7.21v3.415h5.692a3.424,3.424,0,0,1,1.5.347,5.322,5.322,0,0,1,3.434,4.966,5.257,5.257,0,0,1-1.518,3.714v.161a5.309,5.309,0,0,1,.566,6.75,5.261,5.261,0,0,1,.952,3.036,5.322,5.322,0,0,1-3.434,4.966,3.424,3.424,0,0,1-1.5.347H116.839a1.518,1.518,0,0,1-.48-.078l-2.66-.887a1.518,1.518,0,0,1-1.414.964Z" transform="translate(-45.375 -45.375)" fill="#1379ff"/>
    <path id="Path_1685" data-name="Path 1685" d="M176,247.179h6.071V232H176Zm1.518-6.071h3.036v3.036h-3.036Z" transform="translate(-116.679 -162.054)" fill="#1379ff"/>
    <path id="Path_1686" data-name="Path 1686" d="M418.838,185.248A38.035,38.035,0,0,0,415.788,152h-1.333l-1.262,1.578a34.988,34.988,0,0,1,2.757,30.72A16.56,16.56,0,0,1,418.838,185.248Z" transform="translate(-308.868 -97.232)" fill="#1379ff"/>
    <path id="Path_1687" data-name="Path 1687" d="M58.477,184.763a38.088,38.088,0,0,0,.68,28.695H62.5a35.012,35.012,0,0,1-1.136-27.744A16.562,16.562,0,0,1,58.477,184.763Z" transform="translate(-19.446 -123.779)" fill="#1379ff"/>
    <circle id="Ellipse_146" data-name="Ellipse 146" cx="4.554" cy="4.554" r="4.554" transform="translate(39.589 100.304)" fill="#1379ff"/>
    <path id="Path_1688" data-name="Path 1688" d="M45.661,59.321A13.661,13.661,0,1,0,32,45.661,13.661,13.661,0,0,0,45.661,59.321Zm-4.554-16.7h1.518v-.759a5.319,5.319,0,0,1,5.313-5.312h2.277v3.036H47.938a2.279,2.279,0,0,0-2.277,2.277v.759H48.7v3.036H45.661v9.107H42.625V45.661H41.107Z" transform="translate(0)" fill="#1379ff"/>
    <path id="Path_1689" data-name="Path 1689" d="M349.661,336a13.661,13.661,0,1,0,13.661,13.661A13.661,13.661,0,0,0,349.661,336Zm8.268,15.018-12.143,6.071a1.518,1.518,0,0,1-2.2-1.358V343.589a1.518,1.518,0,0,1,2.2-1.358l12.143,6.071a1.518,1.518,0,0,1,0,2.715Z" transform="translate(-246.321 -246.321)" fill="#1379ff"/>
    <path id="Path_1690" data-name="Path 1690" d="M191.154,425.19a34.955,34.955,0,0,1-15.184-3.468l.006,3.347a38.088,38.088,0,0,0,28.695.68,16.556,16.556,0,0,1-.95-2.888A34.653,34.653,0,0,1,191.154,425.19Z" transform="translate(-116.654 -315.779)" fill="#1379ff"/>
    <path id="Path_1691" data-name="Path 1691" d="M336,32V51.732h6.071a1.518,1.518,0,0,1,1.518,1.518v6.071h.788l5.616-7.02a1.518,1.518,0,0,1,1.185-.569h10l2.147-2.147V32Zm12.143,13.661h-3.036V38.071h3.036Zm6.071,0h-3.036V38.071h3.036Z" transform="translate(-246.321)" fill="#1379ff"/>
    <path id="Path_1692" data-name="Path 1692" d="M198.279,59.036A34.664,34.664,0,0,1,210.422,61.2V57.984a38.132,38.132,0,0,0-25.659.493,16.562,16.562,0,0,1,.95,2.888,34.664,34.664,0,0,1,12.566-2.33Z" transform="translate(-123.779 -19.446)" fill="#1379ff"/>
    <path id="Path_1693" data-name="Path 1693" d="M392,396.175l7.231-3.616L392,388.944Z" transform="translate(-291.696 -289.22)" fill="#1379ff"/>
  </g>
</svg>
