<svg id="Group_95" data-name="Group 95" xmlns="http://www.w3.org/2000/svg" width="90.138" height="84.129" viewBox="0 0 90.138 84.129">
  <g id="Group_94" data-name="Group 94" transform="translate(0 0)">
    <path id="Path_495" data-name="Path 495" d="M85.631,56.562V23.512A7.52,7.52,0,0,0,78.12,16h-66.1a7.52,7.52,0,0,0-7.512,7.512V46.046A4.512,4.512,0,0,0,0,50.553V95.622a4.512,4.512,0,0,0,4.507,4.507H37.558a4.512,4.512,0,0,0,4.507-4.507H54.655A4.506,4.506,0,0,0,59,89.93L56.049,79.1H64.6V95.622a4.512,4.512,0,0,0,4.507,4.507H85.631a4.512,4.512,0,0,0,4.507-4.507V61.069A4.512,4.512,0,0,0,85.631,56.562ZM39.06,95.622a1.5,1.5,0,0,1-1.5,1.5H4.507a1.5,1.5,0,0,1-1.5-1.5v-3H39.06Zm0-6.009H3V56.562H39.06Zm0-36.055H3v-3a1.5,1.5,0,0,1,1.5-1.5H37.558a1.5,1.5,0,0,1,1.5,1.5ZM56.105,90.72a1.5,1.5,0,0,1-1.45,1.9H42.064v-3H55.8ZM42.064,86.608V79.1H52.935l2.049,7.512ZM64.6,76.092H42.064V67.078H64.6Zm0-15.023v3H42.064V50.553a4.512,4.512,0,0,0-4.507-4.507H7.512V23.512A4.512,4.512,0,0,1,12.018,19h66.1a4.512,4.512,0,0,1,4.507,4.507V56.562H69.106A4.512,4.512,0,0,0,64.6,61.069ZM87.134,95.622a1.5,1.5,0,0,1-1.5,1.5H69.106a1.5,1.5,0,0,1-1.5-1.5v-3h19.53Zm0-6.009H67.6V67.078h19.53Zm0-25.539H67.6v-3a1.5,1.5,0,0,1,1.5-1.5H85.631a1.5,1.5,0,0,1,1.5,1.5Z" transform="translate(0 -16)" fill="#1379ff"/>
  </g>
</svg>
